<svg width="77" height="77" viewBox="0 0 77 77" fill="none" xmlns="http://www.w3.org/2000/svg">
<path d="M19.2845 19.7185C29.9104 8.84771 47.3919 8.6396 58.2627 19.2656L55.1655 19.3023C54.4922 19.3145 53.9658 19.8532 53.9658 20.5265C53.978 21.1875 54.5167 21.7262 55.1777 21.7262H55.19L61.213 21.6527C61.8863 21.6405 62.4127 21.1019 62.4127 20.4285L62.3392 14.4055C62.327 13.7322 61.7883 13.1936 61.115 13.2058C60.4417 13.2181 59.9153 13.7567 59.9153 14.43L59.9521 17.5272C48.1264 5.97086 29.1025 6.20346 17.5461 18.0291C13.543 22.1302 10.8008 27.2473 9.63786 32.8418C8.49936 38.2895 8.8911 43.9208 10.7641 49.148C10.9477 49.6377 11.4129 49.956 11.9026 49.956C12.0373 49.956 12.1719 49.9315 12.3066 49.8826C12.9309 49.6622 13.2615 48.9644 13.0411 48.3278C9.45423 38.3017 11.8414 27.333 19.2845 19.7185Z" fill="white"/>
<path d="M18.0479 60.4595C23.6914 65.9684 31.1223 68.9921 38.9938 68.9921C39.1162 68.9921 39.2264 68.9921 39.3488 68.9921C47.3673 68.8942 54.8593 65.6991 60.4539 59.9576C64.4692 55.8566 67.1992 50.7272 68.3621 45.1327C69.5006 39.685 69.1089 34.0537 67.2359 28.8265C67.0155 28.2021 66.3177 27.8716 65.6812 28.0919C65.0568 28.3123 64.7263 29.0101 64.9467 29.6467C68.5458 39.6728 66.1586 50.6415 58.7155 58.256C53.5617 63.52 46.6817 66.4703 39.3121 66.556C31.9547 66.6417 25.0013 63.8505 19.7373 58.7089L22.8345 58.6722C23.5078 58.66 24.0342 58.1213 24.0342 57.448C24.022 56.787 23.4833 56.2483 22.8223 56.2483H22.81L16.787 56.3218C16.4687 56.3218 16.1627 56.4564 15.9301 56.689C15.7097 56.9216 15.5873 57.2277 15.5873 57.546L15.6608 63.569C15.673 64.23 16.2116 64.7687 16.8727 64.7687H16.885C17.5583 64.7564 18.0847 64.2178 18.0847 63.5445L18.0479 60.4595Z" fill="white"/>
<path d="M55.7654 32.0339C53.0845 25.5824 47.0125 21.2977 40.108 20.8815C39.9856 20.8692 39.851 20.8692 39.7163 20.857C39.7041 20.857 39.6796 20.857 39.6673 20.857C39.5939 20.857 39.5204 20.8448 39.447 20.8448C39.4347 20.8448 39.4225 20.8448 39.4103 20.8448C39.2756 20.8448 39.1409 20.8325 38.994 20.8325C36.6069 20.8325 34.2809 21.2977 32.0651 22.2159C27.5846 24.0644 24.0956 27.5533 22.2471 32.0339C20.3863 36.5144 20.3863 41.4479 22.2471 45.9162C25.0627 52.7227 31.6489 57.1298 39.0185 57.1298C39.1164 57.1298 39.2021 57.1298 39.3001 57.1175C39.349 57.1175 39.4103 57.1298 39.4592 57.1298C39.4837 57.1298 39.5082 57.1298 39.5204 57.1175C39.6306 57.1175 39.7285 57.1053 39.8387 57.1053C39.8754 57.1053 39.9122 57.1053 39.9611 57.1053C39.9979 57.1053 40.0223 57.1053 40.0591 57.093C42.079 56.9828 44.0622 56.5299 45.9597 55.7464C50.4402 53.8979 53.9291 50.4089 55.7777 45.9284C57.6262 41.4479 57.6384 36.5144 55.7777 32.0461C55.7654 32.0461 55.7654 32.0461 55.7654 32.0339C55.7654 32.0461 55.7654 32.0461 55.7654 32.0339ZM32.6772 24.603C31.3306 26.3536 30.2533 28.6429 29.5433 31.2993H25.2953C26.948 28.3368 29.5188 25.9986 32.6772 24.603ZM24.1936 33.7355H29.0169C28.7353 35.3881 28.5884 37.151 28.5884 38.9995C28.5884 40.8235 28.7476 42.5986 29.0536 44.2635H24.1936C22.9694 40.8358 22.9694 37.151 24.1936 33.7355ZM25.2953 46.6752H29.6167C30.3757 49.3806 31.5265 51.7188 32.9343 53.5061C29.7269 52.1595 27.0215 49.7846 25.2953 46.6752ZM38.235 54.5345C35.701 53.7877 33.4484 50.7517 32.163 46.6752H38.235V54.5345ZM38.235 44.2513H31.5387C31.1959 42.5864 31.0123 40.8113 31.0123 38.9873C31.0123 37.1387 31.1837 35.3637 31.4775 33.7232H38.235V44.2513ZM38.235 31.3116H32.0529C33.2893 27.1004 35.5418 24.1256 38.235 23.44V31.3116ZM52.7172 31.2993H49.3507C48.7263 28.9611 47.8327 26.9167 46.7064 25.2763C49.1915 26.6719 51.2849 28.7408 52.7172 31.2993ZM40.6589 23.4278C43.3521 24.1256 45.5924 27.1004 46.8411 31.2993H40.6589V23.4278ZM40.6589 33.7355H47.4165C47.7225 35.3759 47.8816 37.1387 47.8816 38.9995C47.8816 40.8235 47.698 42.5986 47.3552 44.2635H40.6589V33.7355ZM40.6589 54.5345V46.6752H46.7309C45.4455 50.7517 43.193 53.7877 40.6589 54.5345ZM46.4616 52.8328C47.6491 51.1557 48.6162 49.0501 49.2895 46.6752H52.7172C51.2604 49.2949 49.1058 51.4128 46.4616 52.8328ZM53.819 44.2513H49.8403C50.1464 42.5864 50.3055 40.8235 50.3055 38.9873C50.3055 37.1387 50.1586 35.3759 49.8771 33.7232H53.819C55.0432 37.151 55.0432 40.8358 53.819 44.2513Z" fill="white"/>
</svg>
