<svg width="77" height="77" viewBox="0 0 77 77" fill="none" xmlns="http://www.w3.org/2000/svg">
<path fill-rule="evenodd" clip-rule="evenodd" d="M58.3177 33.842L59.1042 33.8423C60.4494 33.8425 61.544 34.9412 61.5443 36.2914V55.6667C61.5443 56.3243 61.2883 56.9417 60.8231 57.405C60.3625 57.8636 59.7528 58.1157 59.1047 58.1157H59.0856L58.7791 58.1133V60.2795L55.0921 62.361V63.6703H53.2485V61.279L56.9355 59.1974V58.0992L47.7179 58.0289V61.5887H45.8743V58.0148L44.0307 58.0007V61.5887H42.1871V57.9867L32.9695 57.9164V59.1974L36.6565 61.279V63.6701H34.813V62.3609L31.1259 60.2793V57.9021L30.7824 57.8995C29.5416 57.89 28.5172 56.9404 28.378 55.731C25.7573 55.2965 23.7517 53.0073 23.7517 50.2557C23.7517 49.0588 24.1324 47.95 24.777 47.0424L21.0143 43.2659C20.4653 43.592 19.8256 43.7799 19.1428 43.7799C17.1098 43.7799 15.4558 42.1199 15.4558 40.0795C15.4558 38.039 17.1098 36.379 19.1428 36.379C21.1758 36.379 22.8298 38.039 22.8298 40.0795C22.8298 40.7649 22.6426 41.4068 22.3177 41.9578L26.0805 45.7342C26.7468 45.2576 27.5216 44.9256 28.3606 44.7836V36.2844C28.3606 35.6301 28.6144 35.0149 29.0754 34.5524C29.5362 34.0899 30.1491 33.8353 30.8007 33.8353H30.8012L31.5866 33.8355V31.7534H29.2821V19.7267H35.7347V31.7534H33.4303V33.8359L39.8827 33.8375V31.7534H37.5782V19.7267H44.0306V31.7534H41.7261V33.838L48.1785 33.8396V31.7534H45.874V19.7267H52.3264V31.7534H50.022V33.84L56.4744 33.8416V31.7534H54.1699V19.7267H60.6222V31.7534H58.3177V33.842ZM17.2991 40.0795C17.2991 41.0997 18.1261 41.9298 19.1427 41.9298C20.1592 41.9298 20.9862 41.0997 20.9862 40.0795C20.9862 39.0592 20.1592 38.2292 19.1427 38.2292C18.1261 38.2292 17.2991 39.0592 17.2991 40.0795ZM28.3603 53.8392C26.7718 53.4274 25.5951 51.9769 25.5951 50.2559C25.5951 48.5348 26.7718 47.0843 28.3603 46.6724V53.8392ZM58.7786 21.5769H56.0134V26.2025H58.7786V21.5769ZM56.0134 29.9031V28.0528H58.7786V29.9031H56.0134ZM50.4827 21.5769H47.7175V26.2025H50.4827V21.5769ZM47.7175 29.9031V28.0528H50.4827V29.9031H47.7175ZM42.1868 21.5769H39.4215V26.2025H42.1868V21.5769ZM39.4215 29.9031V28.0528H42.1868V29.9031H39.4215ZM33.8909 21.5769H31.1257V26.2025H33.8909V21.5769ZM31.1257 29.9031V28.0528H33.8909V29.9031H31.1257ZM59.5242 56.0915C59.6378 55.9783 59.7005 55.8272 59.7005 55.6664V36.2914C59.7005 35.9614 59.4329 35.6926 59.104 35.6926L30.8008 35.6856H30.8007C30.6414 35.6856 30.4914 35.7478 30.3787 35.8609C30.2661 35.974 30.204 36.1246 30.204 36.2845V55.4506C30.204 55.7783 30.4697 56.047 30.7963 56.0494L59.0993 56.2653C59.2561 56.2644 59.4104 56.2047 59.5242 56.0915Z" fill="white"/>
<path d="M32.0477 37.5348H33.8913V39.3851H32.0477V37.5348Z" fill="white"/>
<path d="M56.0136 37.5348H57.8572V39.3851H56.0136V37.5348Z" fill="white"/>
<path d="M32.0477 52.3368H33.8913V54.1871H32.0477V52.3368Z" fill="white"/>
<path d="M56.0136 52.3368H57.8572V54.1871H56.0136V52.3368Z" fill="white"/>
<path fill-rule="evenodd" clip-rule="evenodd" d="M58.6558 65.2893V67.8334H60.4994V69.6837H58.6558V70.84H31.1257V69.6837H29.2821V67.8334H31.1253V65.2893H38.4995V63.439H40.3431V65.2893H42.1867V63.439H44.0302V65.2893H45.8738V63.439H47.7174V65.2893H49.561V63.439H51.4047V65.2893H58.6558ZM32.9691 68.9897H56.8121V67.1394H32.9691V68.9897Z" fill="white"/>
<path d="M38.5 59.7379H40.3436V61.5882H38.5V59.7379Z" fill="white"/>
<path d="M49.5612 59.7379H51.4048V61.5882H49.5612V59.7379Z" fill="white"/>
<path fill-rule="evenodd" clip-rule="evenodd" d="M29.2823 10.9379C29.2823 9.1526 30.7294 7.70001 32.5084 7.70001C34.2872 7.70001 35.7345 9.1526 35.7348 10.9379V16.9513H33.4303V18.1076H31.5867V16.9513H29.2823V10.9379ZM31.1257 15.1011H33.8909H33.8911V10.9379C33.8911 10.1727 33.2708 9.55019 32.5084 9.55019C31.746 9.55019 31.1257 10.1727 31.1257 10.9379V15.1011Z" fill="white"/>
<path fill-rule="evenodd" clip-rule="evenodd" d="M37.5781 10.9379C37.5781 9.1526 39.0253 7.70001 40.8042 7.70001C42.5832 7.70001 44.0304 9.1526 44.0306 10.9379V16.9513H41.7261V18.1076H39.8826V16.9513H37.5781V10.9379ZM39.4215 10.9379V15.1011H42.1869V10.9379C42.1869 10.1727 41.5666 9.55019 40.8042 9.55019C40.0418 9.55019 39.4215 10.1727 39.4215 10.9379Z" fill="white"/>
<path fill-rule="evenodd" clip-rule="evenodd" d="M45.874 10.9379C45.874 9.1526 47.3212 7.70001 49.1002 7.70001C50.879 7.70001 52.3263 9.1526 52.3266 10.9379V16.9513H50.0221V18.1076H48.1785V16.9513H45.874V10.9379ZM47.7175 15.1011H50.4827H50.4829V10.9379C50.4829 10.1727 49.8626 9.55019 49.1002 9.55019C48.3377 9.55019 47.7175 10.1727 47.7175 10.9379V15.1011Z" fill="white"/>
<path fill-rule="evenodd" clip-rule="evenodd" d="M54.1699 10.9379C54.1699 9.1526 55.6171 7.70001 57.3961 7.70001C59.175 7.70001 60.6222 9.1526 60.6224 10.9379V16.9513H58.318V18.1076H56.4744V16.9513H54.1699V10.9379ZM56.0135 15.1011H58.7788H58.7789V10.9379C58.7789 10.1727 58.1585 9.55019 57.3962 9.55019C56.6338 9.55019 56.0135 10.1727 56.0135 10.9379V15.1011Z" fill="white"/>
<path fill-rule="evenodd" clip-rule="evenodd" d="M15.9166 25.9713C15.9166 24.186 17.3638 22.7334 19.1427 22.7334C20.9217 22.7334 22.3688 24.186 22.3691 25.9713V31.9846H20.0646V34.5287H18.221V31.9846H15.9166V25.9713ZM17.76 25.9713V30.1343H20.5254V25.9713C20.5254 25.2061 19.9051 24.5836 19.1427 24.5836C18.3803 24.5836 17.76 25.2061 17.76 25.9713Z" fill="white"/>
</svg>
