<svg width="56" height="56" viewBox="0 0 56 56" fill="none" xmlns="http://www.w3.org/2000/svg">
<g clip-path="url(#clip0)">
<path d="M28.0002 0.00185356H23.3336C13.6735 0.0127908 5.84506 7.8412 5.83413 17.5014V19.4625L0.145687 29.7708C0.0509712 29.9435 0.00120698 30.1373 0.000988241 30.3343C-0.000980455 30.4006 -0.000980455 30.467 0.000988241 30.5333C0.055893 32.4113 1.62287 33.8892 3.50089 33.8342C4.3494 33.8814 5.16335 34.1862 5.83413 34.708V38.5007C5.8315 38.5898 5.8315 38.6791 5.83413 38.7683C5.90806 41.2716 7.99729 43.2412 10.5007 43.1673H17.5005C17.5668 43.1692 17.6332 43.1692 17.6995 43.1673C19.5775 43.1124 21.0554 41.5454 21.0004 39.6674V32.6676H18.6672V39.6674C18.674 39.7367 18.674 39.8066 18.6672 39.8759C18.6095 40.4627 18.0873 40.8916 17.5005 40.834H10.5007C10.4076 40.8399 10.3142 40.8399 10.2211 40.834C9.00974 40.7568 8.09025 39.7122 8.16747 38.5008V34.1516C8.16758 33.8175 8.02441 33.4993 7.77428 33.2779C6.60421 32.1998 5.0904 31.5703 3.50089 31.5011C3.49575 31.5018 3.4905 31.5023 3.48536 31.5029C2.92286 31.5625 2.41844 31.1548 2.35872 30.5922L8.02277 20.3258C8.11749 20.1531 8.16725 19.9593 8.16747 19.7623V17.5014C8.17709 9.12928 14.9617 2.34471 23.3338 2.33509H27.9863C28.0573 2.32754 28.129 2.3271 28.2 2.33377C28.7896 2.38923 29.2225 2.91213 29.167 3.50165V9.33479H31.5002V3.50176C31.5022 3.43548 31.5022 3.36909 31.5002 3.30281C31.4452 1.42478 29.8783 -0.0531606 28.0002 0.00185356Z" fill="white"/>
<path d="M47.8336 35.0006H35.0005V37.3339H47.8335C47.9028 37.3271 47.9727 37.3271 48.042 37.3339C48.6288 37.3915 49.0578 37.9138 49.0001 38.5005V40.7055C48.8321 41.402 47.7075 45.5004 44.3336 45.5004C43.6892 45.5004 43.1669 46.0227 43.1669 46.667V53.6668H21.0009V50.1669H18.6677V54.8335C18.6677 55.4778 19.19 56.0002 19.8343 56.0002H44.3337C44.978 56.0002 45.5003 55.4778 45.5003 54.8335V47.731C49.1472 47.0415 50.8855 43.1939 51.3102 41.0672C51.3258 40.9904 51.3336 40.9122 51.3335 40.8339V38.5006C51.3354 38.4344 51.3354 38.368 51.3335 38.3017C51.2786 36.4236 49.7116 34.9456 47.8336 35.0006Z" fill="white"/>
<path d="M54.8334 14.0012H51.8922C51.7688 13.6546 51.6275 13.3146 51.4688 12.9827L53.55 10.9015C54.0054 10.4459 54.0054 9.70744 53.55 9.25179L50.2496 5.95139C49.7941 5.49596 49.0556 5.49596 48.5999 5.95139L46.5187 8.03263C46.1866 7.87458 45.8467 7.73371 45.5002 7.61034V4.66801C45.5002 4.0237 44.9779 3.50134 44.3335 3.50134H39.6671C39.0228 3.50134 38.5004 4.0237 38.5004 4.66801V7.61023C37.8652 7.83455 37.2533 8.12012 36.6735 8.463L37.8587 10.472C38.5147 10.0858 39.2216 9.79319 39.9587 9.60277C40.4737 9.46977 40.8335 9.00538 40.8336 8.4735V5.83469H43.1669V8.47361C43.1662 9.00527 43.5251 9.4701 44.0395 9.60408C44.7766 9.7945 45.4835 10.0871 46.1395 10.4733C46.598 10.7442 47.1817 10.6702 47.5582 10.2936L49.4248 8.42691L51.0756 10.0742L49.2089 11.9408C48.8319 12.3169 48.7575 12.9008 49.0281 13.3595C49.4151 14.0154 49.7084 14.7223 49.8996 15.4594C50.0325 15.974 50.4963 16.3337 51.0278 16.3344H53.6667V18.6665H51.0301C50.4986 18.6672 50.0348 19.0269 49.9019 19.5415C49.7107 20.2787 49.4174 20.9856 49.0304 21.6415C48.7598 22.1002 48.8342 22.6839 49.2112 23.0601L51.0779 24.9268L49.4282 26.5764L47.5615 24.7098C47.1851 24.3331 46.6014 24.2592 46.1429 24.5301C45.4869 24.9163 44.78 25.2088 44.0429 25.3993C43.5279 25.5323 43.1681 25.9967 43.168 26.5285V29.1675H40.8347V26.5297C40.8346 25.9979 40.4748 25.5334 39.9598 25.4005C39.2227 25.21 38.5158 24.9175 37.8598 24.5313C37.4013 24.2604 36.8176 24.3343 36.4411 24.711L34.5747 26.5774L32.9251 24.9278L34.7917 23.0611C35.1687 22.685 35.2432 22.1011 34.9725 21.6424C34.5855 20.9865 34.2922 20.2797 34.101 19.5425C33.9681 19.0279 33.5043 18.6682 32.9728 18.6675H29.1674V21.0008H32.1096C32.2326 21.3474 32.3736 21.6873 32.5319 22.0192L30.4506 24.1005C29.9952 24.556 29.9952 25.2945 30.4506 25.7501L33.751 29.0505C34.2066 29.506 34.945 29.506 35.4007 29.0505L37.4819 26.9693C37.814 27.1273 38.1539 27.2682 38.5004 27.3916V30.3338C38.5004 30.9781 39.0228 31.5005 39.6671 31.5005H44.3336C44.978 31.5005 45.5003 30.9781 45.5003 30.3338V27.3927C45.8468 27.2693 46.1867 27.1283 46.5188 26.9704L48.6 29.0505C49.0556 29.506 49.794 29.506 50.2497 29.0505L53.5501 25.7501C54.0055 25.2946 54.0055 24.5561 53.5501 24.1005L51.4677 22.0192C51.6264 21.6873 51.7677 21.3474 51.8911 21.0008H54.8334C55.4777 21.0008 56 20.4784 56 19.8341V15.1677C55.9999 14.5234 55.4777 14.0012 54.8334 14.0012Z" fill="white"/>
<path d="M42.0003 12.8345C39.4231 12.8345 37.3337 14.9238 37.3337 17.501C37.3337 20.0783 39.423 22.1676 42.0003 22.1676C44.5776 22.1676 46.6669 20.0783 46.6669 17.501C46.6669 14.9238 44.5777 12.8345 42.0003 12.8345ZM42.0003 19.8343C40.7117 19.8343 39.6671 18.7897 39.6671 17.501C39.6671 16.2124 40.7117 15.1678 42.0003 15.1678C43.2889 15.1678 44.3335 16.2124 44.3335 17.501C44.3337 18.7897 43.289 19.8343 42.0003 19.8343Z" fill="white"/>
<path d="M17.5009 18.6676V19.8343H14.001V18.6676H11.6678V19.8343C11.6671 19.8665 11.6671 19.8987 11.6678 19.931C11.6944 21.1929 12.7391 22.1942 14.001 22.1675H17.5009C17.5332 22.1682 17.5653 22.1682 17.5976 22.1675C18.8595 22.1408 19.8608 21.0962 19.8341 19.8343V18.6676H17.5009Z" fill="white"/>
<path d="M32.6673 32.6672C30.7343 32.6672 29.1674 34.2342 29.1674 36.1671C29.1674 38.1001 30.7343 39.667 32.6673 39.667C34.6002 39.667 36.1672 38.1001 36.1672 36.1671C36.1672 34.2342 34.6002 32.6672 32.6673 32.6672ZM32.6673 37.3338C32.023 37.3338 31.5006 36.8114 31.5006 36.1671C31.5006 35.5228 32.023 35.0005 32.6673 35.0005C33.3116 35.0005 33.8339 35.5228 33.8339 36.1671C33.8339 36.8114 33.3116 37.3338 32.6673 37.3338Z" fill="white"/>
<path d="M19.8343 26.8341C17.9014 26.8341 16.3344 28.4011 16.3344 30.334C16.3344 32.2669 17.9014 33.8339 19.8343 33.8339C21.7673 33.8339 23.3343 32.2669 23.3343 30.334C23.3343 28.4011 21.7673 26.8341 19.8343 26.8341ZM19.8343 31.5007C19.19 31.5007 18.6677 30.9783 18.6677 30.334C18.6677 29.6897 19.19 29.1673 19.8343 29.1673C20.4787 29.1673 21.001 29.6897 21.001 30.334C21.0009 30.9783 20.4787 31.5007 19.8343 31.5007Z" fill="white"/>
<path d="M30.334 8.16797C28.4011 8.16797 26.8341 9.73494 26.8341 11.6679C26.8341 13.6008 28.4011 15.1678 30.334 15.1678C32.267 15.1678 33.8339 13.6008 33.8339 11.6679C33.8339 9.73494 32.267 8.16797 30.334 8.16797ZM30.334 12.8345C29.6897 12.8345 29.1674 12.3122 29.1674 11.6679C29.1674 11.0236 29.6897 10.5012 30.334 10.5012C30.9783 10.5012 31.5007 11.0236 31.5007 11.6679C31.5007 12.3122 30.9783 12.8345 30.334 12.8345Z" fill="white"/>
<path d="M26.834 18.6676H24.5008V21.0008H26.834V18.6676Z" fill="white"/>
<path d="M26.834 23.3342H24.5008V25.6675H26.834V23.3342Z" fill="white"/>
<path d="M21.0009 45.5002H18.6677V47.8335H21.0009V45.5002Z" fill="white"/>
</g>
<defs>
<clipPath id="clip0">
<rect width="56" height="56" fill="white"/>
</clipPath>
</defs>
</svg>
