<svg width="77" height="77" viewBox="0 0 77 77" fill="none" xmlns="http://www.w3.org/2000/svg">
<g clip-path="url(#clip0)">
<path d="M67.2858 23.534C67.2858 20.82 65.078 18.6122 62.3639 18.6122C60.9705 18.6122 59.7111 19.1954 58.8148 20.1292L39.6075 9.03983C39.2449 8.83063 38.7986 8.83063 38.4361 9.03983L19.2282 20.1292C18.3319 19.1954 17.0731 18.6122 15.6796 18.6122C12.9656 18.6122 10.7578 20.82 10.7578 23.534C10.7578 25.8439 12.3576 27.7862 14.5078 28.3136V50.4845C14.5078 50.9029 14.7312 51.2897 15.0937 51.4994L34.2951 62.5855C34.1679 63.0222 34.0983 63.4837 34.0983 63.9611C34.0983 66.6747 36.3061 68.883 39.0202 68.883C41.7338 68.883 43.9416 66.6747 43.9416 63.9611C43.9416 63.4841 43.8725 63.0236 43.7452 62.5869L62.9498 51.4994C63.3124 51.2902 63.5358 50.9029 63.5358 50.4845V28.3136C65.6859 27.7862 67.2858 25.8439 67.2858 23.534ZM13.1015 23.534C13.1015 22.1122 14.2578 20.9559 15.6796 20.9559C17.101 20.9559 18.2573 22.1122 18.2573 23.534C18.2573 24.9554 17.101 26.1122 15.6796 26.1122C14.2578 26.1122 13.1015 24.9554 13.1015 23.534ZM39.0202 66.5392C37.5983 66.5392 36.442 65.3829 36.442 63.9611C36.442 62.5397 37.5983 61.383 39.0202 61.383C40.4415 61.383 41.5983 62.5397 41.5983 63.9611C41.5983 65.3829 40.4415 66.5392 39.0202 66.5392ZM42.5715 60.5585C41.6747 59.6233 40.415 59.0392 39.0202 59.0392C37.6263 59.0392 36.3665 59.6229 35.4702 60.5572L16.8515 49.8079V28.3136C19.0012 27.7862 20.6011 25.8439 20.6011 23.534C20.6011 23.0561 20.5315 22.5943 20.4038 22.1566L39.0215 11.4079L57.6398 22.1566C57.512 22.5943 57.4425 23.0557 57.4425 23.534C57.4425 25.8439 59.0424 27.7862 61.192 28.3136V49.8079L42.5715 60.5585ZM62.3639 26.1122C60.9425 26.1122 59.7858 24.9554 59.7858 23.534C59.7858 22.1122 60.9425 20.9559 62.3639 20.9559C63.7857 20.9559 64.942 22.1122 64.942 23.534C64.942 24.9554 63.7857 26.1122 62.3639 26.1122Z" fill="white"/>
<path d="M55.0762 27.062L39.6074 18.1315C39.2449 17.9223 38.7985 17.9223 38.436 18.1315L22.9672 27.062C22.6046 27.2717 22.3813 27.6585 22.3813 28.0769V45.9384C22.3813 46.3568 22.6046 46.7441 22.9672 46.9533L38.436 55.8843C38.6173 55.9887 38.8191 56.0413 39.0215 56.0413C39.2243 56.0413 39.4261 55.9887 39.6074 55.8843L55.0762 46.9533C55.4388 46.7441 55.6621 46.3568 55.6621 45.9384V28.0769C55.6621 27.6585 55.4388 27.2717 55.0762 27.062ZM39.0215 20.4995L52.1465 28.0769L39.0215 35.6548L25.8969 28.0769L39.0215 20.4995ZM40.1933 52.8397V47.5548C40.1933 46.9075 39.6688 46.3829 39.0215 46.3829C38.3746 46.3829 37.85 46.9075 37.85 47.5548V52.8397L24.725 45.2619V30.1066L38.436 38.0228C38.6173 38.1271 38.8191 38.1798 39.0215 38.1798C39.2243 38.1798 39.4261 38.1271 39.6074 38.0228L53.3184 30.1066V45.2619L40.1933 52.8397Z" fill="white"/>
<path d="M39.0205 41.1095C38.7111 41.1095 38.4098 41.2345 38.1906 41.4528C37.9727 41.6707 37.8473 41.9728 37.8473 42.2814C37.8473 42.5895 37.9727 42.8916 38.1906 43.1095C38.4098 43.3278 38.7111 43.4533 39.0205 43.4533C39.3286 43.4533 39.6312 43.3278 39.8491 43.1095C40.067 42.8916 40.1924 42.5895 40.1924 42.2814C40.1924 41.9728 40.067 41.6707 39.8491 41.4528C39.6312 41.2345 39.3286 41.1095 39.0205 41.1095Z" fill="white"/>
</g>
<defs>
<clipPath id="clip0">
<rect x="9" y="9" width="60" height="60" fill="white"/>
</clipPath>
</defs>
</svg>
