<svg width="77" height="77" viewBox="0 0 77 77" fill="none" xmlns="http://www.w3.org/2000/svg">
<g clip-path="url(#clip0)">
<path d="M39.0223 24.0586C39.6695 24.0586 40.1942 23.5339 40.1942 22.8867C40.1942 22.2395 39.6695 21.7148 39.0223 21.7148C38.3751 21.7148 37.8504 22.2395 37.8504 22.8867C37.8504 23.5339 38.3751 24.0586 39.0223 24.0586Z" fill="white"/>
<path d="M67.8234 37.6594L60.6281 25.725C59.8922 24.5039 58.8434 23.4879 57.5953 22.7859C56.3496 22.0852 54.9328 21.7148 53.4996 21.7148H44.2957C43.65 21.7148 43.1238 22.241 43.1238 22.8867C43.1238 23.5324 43.65 24.0586 44.2957 24.0586H53.5008C55.5902 24.0586 57.552 25.1602 58.6207 26.9344L65.816 38.8688C66.3656 39.7805 66.6562 40.8234 66.6562 41.8852C66.6551 43.282 66.1523 44.6367 65.2383 45.702L59.4809 52.3992C58.6395 53.3777 57.4359 53.9402 56.182 53.9414C55.5926 53.9414 55.016 53.8195 54.4676 53.5805C52.2199 52.5949 50.0273 51.9328 47.5676 51.498C45.102 51.0609 42.3973 50.8582 39.0563 50.8582H39H38.9426C35.6027 50.8582 32.8992 51.0621 30.4324 51.498C27.9727 51.9328 25.7801 52.5949 23.5324 53.5805C22.984 53.8195 22.4074 53.9414 21.818 53.9414C20.5641 53.9402 19.3605 53.3777 18.5191 52.3992L12.7617 45.702C11.8477 44.6367 11.3438 43.282 11.3438 41.8852C11.3438 40.8234 11.6344 39.7805 12.184 38.8688L19.3793 26.9344C20.448 25.1602 22.4098 24.0586 24.5004 24.0586H33.7488C34.3957 24.0586 34.9207 23.5324 34.9207 22.8867C34.9207 22.241 34.3957 21.7148 33.7488 21.7148H24.5004C23.0672 21.7148 21.6504 22.0852 20.4047 22.7859C19.1566 23.4879 18.1078 24.5039 17.3719 25.725L10.1766 37.6582C9.40664 38.9367 9 40.398 9 41.8852C9 43.841 9.7043 45.7395 10.984 47.2289L16.7414 53.9273C18.0281 55.4262 19.8762 56.2852 21.8145 56.2852H21.818C22.7332 56.2852 23.6262 56.0977 24.4711 55.7273C28.6289 53.9145 32.7023 53.2066 39 53.202C45.2977 53.2066 49.3711 53.9145 53.5289 55.7273C54.3738 56.0977 55.2656 56.2852 56.1797 56.2852H56.1867C58.1238 56.2852 59.973 55.4262 61.2586 53.9273L67.016 47.2289C68.2957 45.7395 69 43.841 69 41.8852C69 40.398 68.5934 38.9367 67.8234 37.6594Z" fill="white"/>
<path d="M21.6621 28.0226L14.1634 40.0653C13.336 41.394 13.4636 43.1497 14.4736 44.3347L19.279 49.972C20.53 51.4394 22.4768 51.9486 24.2387 51.2688C28.4992 49.6255 33.7021 48.7203 38.8888 48.7203C44.1294 48.7203 49.4046 49.639 53.7428 51.3073C54.2588 51.5057 54.7906 51.6019 55.3163 51.6019C56.5826 51.6019 57.8125 51.043 58.6954 50.0067L63.5267 44.3371C64.5384 43.15 64.6643 41.3923 63.8331 40.0627L56.3022 28.0169C55.6701 27.0059 54.5986 26.4022 53.4361 26.4022H24.5315C23.3665 26.4023 22.2938 27.008 21.6621 28.0226ZM35.4066 46.5078C35.7773 43.1461 37.4455 40.9687 38.9994 40.9687C40.1563 40.9687 41.0012 42.0828 41.4019 42.7469C42.0232 43.7767 42.4321 45.0871 42.5926 46.5238C41.3629 46.4282 40.1247 46.3767 38.8887 46.3767C37.7262 46.3767 36.5625 46.4228 35.4066 46.5078ZM54.315 29.2595L61.846 41.3052C62.1366 41.7701 62.0932 42.4058 61.743 42.8169L56.9117 48.4866C56.316 49.1857 55.4024 49.4343 54.5842 49.1196C51.6812 48.0033 48.39 47.2044 44.9693 46.7662C44.6126 42.1253 42.1084 38.6249 38.9996 38.6249C35.898 38.6249 33.395 42.1147 33.0324 46.742C29.596 47.1696 26.2942 47.9638 23.3953 49.0819C22.5749 49.3985 21.6591 49.1509 21.0627 48.4514L16.2573 42.8141C15.9075 42.4037 15.8637 41.7687 16.1529 41.304L23.6516 29.2612C23.8526 28.9386 24.1814 28.746 24.5315 28.746H53.4362C53.7855 28.7461 54.1139 28.938 54.315 29.2595Z" fill="white"/>
<path d="M28.7461 41.6367C31.6539 41.6367 34.0195 39.2711 34.0195 36.3633C34.0195 33.4555 31.6539 31.0898 28.7461 31.0898C25.8383 31.0898 23.4727 33.4555 23.4727 36.3633C23.4727 39.2711 25.8383 41.6367 28.7461 41.6367ZM28.7461 33.4336C30.3615 33.4336 31.6758 34.7479 31.6758 36.3633C31.6758 37.9787 30.3615 39.293 28.7461 39.293C27.1307 39.293 25.8164 37.9787 25.8164 36.3633C25.8164 34.7479 27.1307 33.4336 28.7461 33.4336Z" fill="white"/>
<path d="M49.2539 41.6367C52.1617 41.6367 54.5273 39.2711 54.5273 36.3633C54.5273 33.4555 52.1617 31.0898 49.2539 31.0898C46.3461 31.0898 43.9805 33.4555 43.9805 36.3633C43.9805 39.2711 46.3461 41.6367 49.2539 41.6367ZM49.2539 33.4336C50.8693 33.4336 52.1836 34.7479 52.1836 36.3633C52.1836 37.9787 50.8693 39.293 49.2539 39.293C47.6385 39.293 46.3242 37.9787 46.3242 36.3633C46.3242 34.7479 47.6385 33.4336 49.2539 33.4336Z" fill="white"/>
</g>
<defs>
<clipPath id="clip0">
<rect x="9" y="9" width="60" height="60" fill="white"/>
</clipPath>
</defs>
</svg>
