<svg width="77" height="77" viewBox="0 0 77 77" fill="none" xmlns="http://www.w3.org/2000/svg">
<path fill-rule="evenodd" clip-rule="evenodd" d="M68.6809 48.1495H69.3006C69.8509 48.1495 70.2968 48.5973 70.2969 49.1495V54.2934V69.7159C70.2969 70.2683 69.8511 70.7159 69.3009 70.7159H54.6197C54.0694 70.7159 53.6236 70.2683 53.6236 69.7159V54.2933V49.1494C53.6236 48.5969 54.0694 48.1494 54.6197 48.1494H55.1422V46.4298C54.0932 45.5473 51.3712 42.9754 51.1861 39.91C51.0504 37.6641 50.9103 35.3419 52.3031 34.1716C52.9454 33.6318 53.7947 33.4235 54.8816 33.5405V30.9224C54.8816 29.4244 56.0956 28.2056 57.5876 28.2056H57.6916C58.6349 28.2056 59.467 28.6926 59.9516 29.4292C60.2833 29.2855 60.6471 29.2071 61.0254 29.2071H61.1294C61.959 29.2071 62.7027 29.5839 63.1995 30.1758C63.5814 29.9725 64.0157 29.8598 64.4726 29.8598H64.5766C65.4332 29.8598 66.1981 30.2617 66.6944 30.8872C67.081 30.6731 67.5252 30.5513 67.997 30.5513H68.101C69.5929 30.5513 70.807 31.77 70.807 33.268V37.9207C70.8533 38.4843 71.1323 42.9278 68.6809 45.4183V48.1495ZM53.5816 35.7055C52.9594 36.2281 53.0786 38.2026 53.1745 39.789C53.3428 42.5773 56.6987 45.1221 56.7327 45.1478C56.9845 45.3363 57.1341 45.6342 57.1341 45.9505V48.1505H66.6887V44.9838C66.6887 44.6896 66.8174 44.4105 67.0411 44.2205C68.8384 42.6931 68.9341 39.2565 68.8192 38.0612C68.8162 38.0293 68.8146 37.9972 68.8146 37.9653V33.2689C68.8146 32.8737 68.4943 32.5521 68.1007 32.5521H67.9967C67.6028 32.5521 67.2823 32.8737 67.2823 33.2689V35.2744C67.2823 35.8268 66.8364 36.2744 66.2863 36.2744C65.736 36.2744 65.2902 35.8268 65.2902 35.2744V33.2689V32.5773C65.2902 32.1821 64.97 31.8605 64.5763 31.8605H64.4724C64.1983 31.8605 63.9553 32.0139 63.8355 32.2522V34.7835C63.8355 35.3359 63.3897 35.7835 62.8395 35.7835C62.2892 35.7835 61.8434 35.3359 61.8434 34.7835V32.0658V31.9245C61.8434 31.5292 61.523 31.2076 61.1293 31.2076H61.0253C60.7591 31.2076 60.5204 31.3554 60.3977 31.5848V34.7833C60.3977 35.3357 59.9519 35.7832 59.4017 35.7832C58.8514 35.7832 58.4056 35.3357 58.4056 34.7833V31.3866V30.9227C58.4056 30.5274 58.0852 30.2057 57.6915 30.2057H57.5875C57.1939 30.2057 56.8736 30.5274 56.8736 30.9227V36.9164C56.8736 37.4688 56.4278 37.9164 55.8776 37.9164C55.3273 37.9164 54.8815 37.4688 54.8815 36.9164V35.5582C54.2656 35.4615 53.8127 35.5111 53.5816 35.7055ZM68.3045 68.7162H55.6155V55.2935H68.3045V68.7162ZM55.6155 53.2936H68.3045V50.1496H67.6849H56.138H55.6155V53.2936Z" fill="white"/>
<path fill-rule="evenodd" clip-rule="evenodd" d="M50.0159 24.0886L54.5728 26.0207C54.9013 26.16 55.2475 26.2297 55.5937 26.2297C55.928 26.2297 56.2624 26.1648 56.5812 26.0347C57.2309 25.7699 57.7388 25.2669 58.0114 24.6187L58.5657 23.3012C58.8385 22.653 58.8434 21.9368 58.5796 21.2847C58.3158 20.6326 57.8149 20.1228 57.1677 19.8486L51.7584 17.5661L52.0085 16.6583C52.0117 16.6464 52.0149 16.6345 52.0175 16.6226C52.1846 15.9164 52.0677 15.1875 51.6885 14.5698C51.3093 13.9519 50.7131 13.5195 50.0107 13.352L49.9086 13.3276C49.4492 13.218 48.9894 13.2336 48.5639 13.3523C48.2252 12.6285 47.5733 12.0602 46.7396 11.8612L46.6389 11.8372C46.1949 11.7314 45.7467 11.7402 45.3288 11.8491C45.294 11.7798 45.256 11.7118 45.215 11.645C44.8357 11.0271 44.2396 10.5946 43.5371 10.4271L43.4351 10.4027C43.0676 10.3149 42.6962 10.3064 42.3412 10.3695C42.2786 10.1982 42.1985 10.032 42.1009 9.87308C41.7217 9.25518 41.1256 8.82261 40.4208 8.6546L40.3212 8.63096C39.6176 8.4632 38.8914 8.58057 38.2762 8.96127C37.6654 9.33912 37.2364 9.93139 37.0669 10.6306L36.8895 11.292L29.8755 8.33296C29.8735 8.33209 29.8715 8.33143 29.8696 8.33078L29.8646 8.329C29.8459 8.32145 29.8269 8.31489 29.8078 8.30832L29.7963 8.30447L29.7963 8.30447C29.7874 8.30144 29.7785 8.29842 29.7696 8.29582C29.7562 8.29182 29.7425 8.28851 29.7288 8.28516L29.7288 8.28516L29.7288 8.28516L29.7202 8.28307L29.7107 8.28085C29.6972 8.27771 29.6838 8.27458 29.6703 8.27217C29.6611 8.27047 29.6519 8.26911 29.6426 8.26775L29.63 8.26586C29.6097 8.26277 29.5892 8.26041 29.569 8.2588C29.5664 8.25862 29.5639 8.25825 29.5613 8.25787C29.5587 8.2575 29.5562 8.25713 29.5536 8.25695L22.8839 7.82574C22.4643 7.79763 22.0794 8.03484 21.9099 8.4169C21.7405 8.79908 21.8257 9.24676 22.1239 9.53906L26.8124 14.1363L26.817 14.1409L26.8193 14.1431C26.821 14.1448 26.8228 14.1463 26.8245 14.1478L26.8278 14.1506C26.8472 14.1693 26.8675 14.1874 26.8886 14.2046C26.895 14.2099 26.9016 14.2147 26.9081 14.2195L26.92 14.2284L26.9325 14.238L26.9325 14.238C26.9395 14.2434 26.9464 14.2487 26.9538 14.2538L26.9565 14.2555L26.9584 14.2566L26.9584 14.2566C26.96 14.2575 26.9615 14.2584 26.963 14.2595C26.98 14.271 26.9975 14.2812 27.0152 14.2914C27.1422 14.3731 27.275 14.4465 27.4135 14.5051L31.6791 16.3136C31.3645 17.2409 31.1725 18.3425 31.0005 19.3347C30.4562 22.4696 32.6842 25.721 33.4331 26.7073L33.4366 31.2539H32.6074C32.0571 31.2539 31.6113 31.7014 31.6113 32.2539V37.398V69.7164C31.6113 70.2688 32.0571 70.7164 32.6074 70.7164H47.2887C47.8389 70.7164 48.2847 70.2688 48.2847 69.7164V44.6927C48.2847 44.1403 47.8389 43.6927 47.2887 43.6927C46.7384 43.6927 46.2926 44.1403 46.2926 44.6927V68.7163H33.6036V38.398H46.2926V40.0649V41.1759C46.2926 41.7283 46.7384 42.1759 47.2887 42.1759C47.8389 42.1759 48.2847 41.7282 48.2847 41.1759V40.0649V37.398V32.2539C48.2847 31.7014 47.8389 31.2538 47.2887 31.2538H46.871L46.88 28.6705C48.5623 27.5518 49.5067 25.6087 50.0159 24.0886ZM55.3018 21.231L56.3944 21.6919C56.5499 21.7576 56.6705 21.8805 56.734 22.0373C56.7976 22.1944 56.7964 22.3669 56.7307 22.523L56.1763 23.8408C56.1107 23.9969 55.9884 24.118 55.8319 24.1817C55.6755 24.2456 55.5036 24.2444 55.3481 24.1784L54.1832 23.6845L55.3018 21.231ZM51.2232 19.51L50.5457 21.9687C50.5395 22.0086 50.5307 22.0634 50.5189 22.131L52.3472 22.906L53.4643 20.4555L51.2232 19.51ZM27.2136 11.7342L25.44 9.99515L27.9593 10.1581L27.2136 11.7342ZM29.9809 10.5469L28.8477 12.9421L35.6715 15.8351L36.3669 13.2413L29.9809 10.5469ZM46.2925 36.3981H33.6035V33.2539H46.2926V36.3981H46.2925ZM44.8896 28.0934C44.8908 27.7179 45.1016 27.3749 45.435 27.205C47.9519 25.9238 48.5765 21.666 48.5824 21.6237C48.5883 21.581 48.5972 21.5369 48.6088 21.4952L50.082 16.1476C50.1639 15.7678 49.9275 15.3889 49.5491 15.2987L49.447 15.2743C49.0645 15.1828 48.679 15.4216 48.588 15.8061C48.5863 15.8133 48.5842 15.8203 48.582 15.8272C48.5809 15.8308 48.5798 15.8343 48.5787 15.838C48.5775 15.8427 48.5764 15.8474 48.5752 15.8521C48.5735 15.8595 48.5717 15.8669 48.5695 15.8744L47.7096 18.6256C47.5759 19.053 47.1831 19.3266 46.7594 19.3266C46.6606 19.3266 46.5602 19.3116 46.4609 19.2804C45.9361 19.115 45.6441 18.5538 45.8087 18.0269L46.658 15.3097L46.8088 14.6712C46.9 14.2864 46.6622 13.8994 46.2792 13.8079L46.1784 13.7839C45.8953 13.7161 45.6081 13.8266 45.4395 14.0575L44.4735 17.3331C44.3454 17.7682 43.9487 18.0496 43.5189 18.0496C43.4253 18.0496 43.3301 18.0361 43.2357 18.0081C42.7082 17.8515 42.4072 17.2951 42.5633 16.7655L43.6068 13.2272C43.6476 13.0436 43.6169 12.8551 43.5188 12.6951C43.4186 12.5319 43.2614 12.4179 43.0757 12.3736L42.9737 12.3492C42.7092 12.2858 42.4363 12.3801 42.2647 12.5853L41.1309 16.5292C41.005 16.9669 40.6069 17.252 40.1744 17.252C40.0829 17.252 39.99 17.2392 39.8977 17.2126C39.369 17.0594 39.0643 16.5051 39.2169 15.9744L40.3902 11.8928L40.4914 11.4651C40.5356 11.2784 40.5048 11.0861 40.4048 10.9231C40.3047 10.7599 40.1472 10.6459 39.9618 10.6015L39.8621 10.5779C39.6749 10.5333 39.4835 10.5642 39.3212 10.6646C39.1586 10.7651 39.0452 10.9232 39.001 11.1093C38.9988 11.1189 38.9965 11.1286 38.9938 11.1382L37.2159 17.7699C37.0731 18.3031 36.5255 18.6188 35.9952 18.4756C35.672 18.3882 35.4297 18.1505 35.3212 17.8579L33.52 17.0941C33.2807 17.8505 33.1137 18.8105 32.963 19.6782C32.4878 22.4148 35.1358 25.6486 35.1911 25.7162L35.1918 25.717C35.3416 25.8968 35.4246 26.1247 35.4248 26.3589L35.4283 31.151H44.8789L44.8896 28.0934Z" fill="white"/>
<path fill-rule="evenodd" clip-rule="evenodd" d="M27.4029 38.7834V43.4356C27.4493 43.9993 27.7282 48.4431 25.2771 50.9335V53.6648H25.8968C26.447 53.6648 26.8928 54.1123 26.8928 54.6647V59.8089V69.7164C26.8928 70.2689 26.447 70.7164 25.8968 70.7164H11.2154C10.6651 70.7164 10.2193 70.2689 10.2193 69.7164V59.8089V54.6647C10.2193 54.1123 10.6651 53.6648 11.2154 53.6648H11.7379V51.9451C10.6889 51.0627 7.96711 48.4908 7.782 45.4254C7.64635 43.1793 7.50626 40.8569 8.89904 39.6868C9.54154 39.1472 10.3901 38.9382 11.4773 39.0559V36.4377C11.4773 34.9397 12.6913 33.7208 14.1836 33.7208H14.2875C15.2308 33.7208 16.063 34.2079 16.5475 34.9444C16.8791 34.8008 17.2429 34.7224 17.6211 34.7224H17.7251C18.5548 34.7224 19.2985 35.0991 19.7954 35.6913C20.1773 35.4879 20.6115 35.3751 21.0683 35.3751H21.1722C22.0288 35.3751 22.7939 35.7768 23.2902 36.4024C23.6768 36.1884 24.1208 36.0665 24.5927 36.0665H24.6966C26.1888 36.0665 27.4029 37.2853 27.4029 38.7834ZM12.2112 68.7162H24.9005V60.8086H12.2112V68.7162ZM24.9005 58.8088H12.2112V55.6647H12.7336H24.2807H24.9005V58.8088ZM23.2847 50.4982C23.2847 50.204 23.4135 49.9249 23.6372 49.7349C25.4344 48.2075 25.5301 44.7708 25.4151 43.5755C25.4121 43.5436 25.4105 43.5115 25.4105 43.4795V38.7834C25.4105 38.3881 25.0901 38.0665 24.6964 38.0665H24.5924C24.1987 38.0665 23.8783 38.3881 23.8783 38.7834V40.789C23.8783 41.3413 23.4325 41.789 22.8822 41.789C22.332 41.789 21.8862 41.3415 21.8862 40.789V38.7835V38.0918C21.8862 37.6967 21.5658 37.375 21.172 37.375H21.068C20.794 37.375 20.5511 37.5284 20.4312 37.7669V40.2982C20.4312 40.8506 19.9854 41.2981 19.4352 41.2981C18.8849 41.2981 18.4391 40.8506 18.4391 40.2982V37.5805V37.439C18.4391 37.0437 18.1187 36.7221 17.725 36.7221H17.621C17.3549 36.7221 17.1165 36.8699 16.9937 37.0994V40.2979C16.9937 40.8503 16.5479 41.2979 15.9976 41.2979C15.4474 41.2979 15.0015 40.8503 15.0015 40.2979V36.9012V36.4373C15.0015 36.042 14.6812 35.7204 14.2874 35.7204H14.1833C13.7896 35.7204 13.4692 36.042 13.4692 36.4373V42.4314C13.4692 42.9838 13.0234 43.4314 12.4731 43.4314C11.9229 43.4314 11.4771 42.9838 11.4771 42.4314V41.0732C10.8618 40.9767 10.4082 41.0264 10.1774 41.2205C9.55523 41.7431 9.67436 43.7177 9.7703 45.3042C9.91064 47.6301 12.3854 49.9601 13.3272 50.6618C13.5803 50.8502 13.7296 51.1481 13.7296 51.4647V53.6648V53.6649H23.2847V50.4982Z" fill="white"/>
</svg>
