<svg width="11" height="12" viewBox="0 0 11 12" fill="none" xmlns="http://www.w3.org/2000/svg">
<g opacity="0.5">
<path d="M0 1.96875V1.3125C0 1.00078 0.250781 0.75 0.5625 0.75H3.1875L3.40781 0.311719C3.50156 0.119531 3.69609 0 3.90938 0H6.58828C6.80156 0 6.99609 0.119531 7.09219 0.311719L7.3125 0.75H9.9375C10.2492 0.75 10.5 1.00078 10.5 1.3125V1.96875C10.5 2.12344 10.3734 2.25 10.2188 2.25H0.28125C0.126563 2.25 0 2.12344 0 1.96875ZM9.73125 3.29766L9.25312 10.9453C9.21562 11.5383 8.72344 12 8.13047 12H2.36953C1.77656 12 1.28438 11.5383 1.24688 10.9453L0.76875 3.29766C0.759375 3.13594 0.888281 3 1.05 3H9.45234C9.61172 3 9.74063 3.13594 9.73125 3.29766Z" fill="#434650"/>
</g>
</svg>
