<svg width="69" height="60" viewBox="0 0 69 60" fill="none" xmlns="http://www.w3.org/2000/svg">
<path d="M62.1429 0H45C41.4509 0 38.5714 2.87946 38.5714 6.42857V23.5714C38.5714 27.1205 41.4509 30 45 30H55.7143V38.5714C55.7143 43.2991 51.8705 47.1429 47.1429 47.1429H46.0714C44.2902 47.1429 42.8571 48.5759 42.8571 50.3571V56.7857C42.8571 58.567 44.2902 60 46.0714 60H47.1429C58.9821 60 68.5714 50.4107 68.5714 38.5714V6.42857C68.5714 2.87946 65.692 0 62.1429 0ZM23.5714 0H6.42857C2.87946 0 0 2.87946 0 6.42857V23.5714C0 27.1205 2.87946 30 6.42857 30H17.1429V38.5714C17.1429 43.2991 13.2991 47.1429 8.57143 47.1429H7.5C5.71875 47.1429 4.28571 48.5759 4.28571 50.3571V56.7857C4.28571 58.567 5.71875 60 7.5 60H8.57143C20.4107 60 30 50.4107 30 38.5714V6.42857C30 2.87946 27.1205 0 23.5714 0Z" fill="#D7DEE7" fill-opacity="0.5"/>
</svg>
