<svg width="24" height="24" viewBox="0 0 24 24" fill="none" xmlns="http://www.w3.org/2000/svg">
<path d="M24 21.75C24 22.9927 22.9926 24 21.75 24H2.25C1.00734 24 0 22.9927 0 21.75V9.40894C4.14475e-06 9.06775 0.0776011 8.73104 0.226921 8.42426C0.376241 8.11748 0.593372 7.84868 0.86189 7.63819C2.02969 6.72277 2.99475 5.98046 8.55876 1.94237C9.34743 1.36735 10.9124 -0.0162583 12 0.000147907C13.0874 -0.0164458 14.6529 1.36759 15.4412 1.94232C21.0047 5.97999 21.9711 6.72333 23.1381 7.63819C23.4066 7.84868 23.6238 8.11748 23.7731 8.42426C23.9224 8.73104 24 9.06775 24 9.40894V21.75ZM20.9219 12.5341C20.8018 12.3594 20.561 12.3188 20.3904 12.4448C19.3195 13.2357 17.7906 14.3528 15.4412 16.0578C14.6526 16.6328 13.0876 18.0163 12 17.9999C10.912 18.016 9.34879 16.6338 8.55876 16.0578C6.20967 14.353 4.68061 13.2358 3.60961 12.4448C3.43903 12.3188 3.19823 12.3594 3.07809 12.5341L2.65284 13.1527C2.59772 13.2328 2.5759 13.3313 2.59199 13.4272C2.60807 13.5231 2.6608 13.609 2.73905 13.6668C3.81187 14.4589 5.33845 15.5741 7.67512 17.27C8.62547 17.9628 10.3247 19.5112 12 19.5C13.6746 19.5113 15.3732 17.9638 16.3248 17.27C18.6615 15.5741 20.1882 14.4589 21.2609 13.6668C21.3391 13.609 21.3919 13.5231 21.408 13.4272C21.424 13.3313 21.4022 13.2328 21.3471 13.1527L20.9219 12.5341Z" fill="#C3E600"/>
</svg>
