<svg width="20" height="12" viewBox="0 0 20 12" fill="none" xmlns="http://www.w3.org/2000/svg">
<path d="M19.5442 0.805678C19.6816 0.341578 19.5442 0 18.8833 0H16.6965C16.1395 0 15.8834 0.293311 15.746 0.620038C15.746 0.620038 14.6322 3.3341 13.0579 5.09396C12.5493 5.60262 12.3154 5.76598 12.0369 5.76598C11.8995 5.76598 11.6879 5.60262 11.6879 5.13852V0.805678C11.6879 0.248758 11.532 0 11.0716 0H7.63352C7.28452 0 7.0766 0.259896 7.0766 0.501228C7.0766 1.02845 7.86371 1.15097 7.9454 2.63609V5.8588C7.9454 6.56423 7.81916 6.69418 7.5407 6.69418C6.79814 6.69418 4.99372 3.96899 3.92443 0.850232C3.70909 0.245045 3.49746 0 2.93683 0H0.749986C0.126235 0 1.41632e-08 0.293311 1.41632e-08 0.620038C1.41632e-08 1.19923 0.74256 4.07666 3.45662 7.87857C5.26475 10.4738 7.81173 11.881 10.1285 11.881C11.5208 11.881 11.6916 11.5691 11.6916 11.0307C11.6916 8.55058 11.5654 8.31668 12.2634 8.31668C12.5864 8.31668 13.1433 8.48004 14.4428 9.73125C15.9279 11.2164 16.173 11.881 17.0046 11.881H19.1915C19.8152 11.881 20.1308 11.5691 19.9489 10.9528C19.5331 9.657 16.7225 6.99121 16.5962 6.81299C16.2732 6.39716 16.366 6.21152 16.5962 5.84024C16.5999 5.83652 19.2694 2.07917 19.5442 0.805678Z" fill="white"/>
</svg>
