<svg width="262" height="80" viewBox="0 0 262 80" fill="none" xmlns="http://www.w3.org/2000/svg">
<path fill-rule="evenodd" clip-rule="evenodd" d="M0.112976 79.8871H47.9922V0H0.112976V79.8871Z" fill="#FFFFFE"/>
<path fill-rule="evenodd" clip-rule="evenodd" d="M22.8673 41.5754C21.9851 41.5754 21.2684 42.2883 21.2684 43.1744C21.2684 44.0604 21.9851 44.7752 22.8673 44.7752C23.7515 44.7752 24.4701 44.0604 24.4701 43.1744C24.4701 42.2883 23.7515 41.5754 22.8673 41.5754ZM47.9921 79.9887C47.9921 79.9887 39.0077 80 38.2289 80C36.818 80 36.3195 79.8853 35.7853 78.6512C33.6257 73.6511 34.1148 72.1518 36.5133 69.6141C38.5318 67.4828 38.3305 65.7634 36.6675 62.6463C36.6675 62.6463 34.9971 59.454 34.1449 57.7233C33.3134 56.0303 37.6984 55.1048 36.0825 52.8662C35.0573 51.4515 31.3514 46.2276 28.1967 41.788C25.1624 37.5084 21.4452 34.2897 17.2126 34.5456C10.2485 34.9613 3.31836 41.8464 6.80979 53.1145C8.69095 59.1888 12.9386 73.2937 13.7456 75.9724C14.5508 78.655 14.3325 79.9699 11.7177 79.9699C10.5006 79.9699 0 79.9887 0 79.9887V0H47.9921V79.9887Z" fill="#ED0C6D"/>
<path fill-rule="evenodd" clip-rule="evenodd" d="M40.4376 21.9623C39.7284 21.7196 38.6655 22.0582 37.9225 23.1417C39.0718 20.1733 40.7009 19.0841 40.7009 19.0841L38.8818 18.9656C38.1915 19.8459 37.8096 20.747 37.5838 21.5992C37.1098 20.621 35.492 20.9126 34.9672 21.2512C33.5732 22.1428 33.0691 23.9582 33.5224 25.7058C33.8535 26.9887 34.7471 28.0196 35.8983 28.441C38.9477 29.5471 40.7555 27.4778 41.301 26.4977C42.0554 25.1395 42.4278 22.6282 40.4376 21.9623ZM26.799 21.9623C26.0898 21.7196 25.027 22.0582 24.2839 23.1417C25.4333 20.1733 27.0624 19.0841 27.0624 19.0841L25.2433 18.9656C24.5529 19.8459 24.1711 20.747 23.9453 21.5992C23.4713 20.621 21.8535 20.9126 21.3286 21.2512C19.9347 22.1428 19.4305 23.9582 19.8839 25.7058C20.215 26.9887 21.1085 28.0196 22.2598 28.441C25.3092 29.5471 27.117 27.4778 27.6625 26.4977C28.415 25.1395 28.7893 22.6282 26.799 21.9623ZM13.1607 21.9623C12.4515 21.7196 11.3886 22.0582 10.6455 23.1417C11.7949 20.1733 13.424 19.0841 13.424 19.0841L11.6049 18.9656C10.9146 19.8459 10.5327 20.747 10.3069 21.5992C9.83289 20.621 8.21509 20.9126 7.69025 21.2512C6.29631 22.1428 5.79216 23.9582 6.24552 25.7058C6.5766 26.9887 7.47015 28.0196 8.62142 28.441C11.6708 29.5471 13.4786 27.4778 14.0241 26.4977C14.7785 25.1395 15.1509 22.6282 13.1607 21.9623ZM40.4376 9.02944C39.7284 8.79053 38.6655 9.12538 37.9225 10.2089C39.0718 7.24422 40.7009 6.15315 40.7009 6.15315L38.8818 6.03275C38.1915 6.91314 37.8096 7.81045 37.5838 8.66638C37.1098 7.68629 35.492 7.97975 34.9672 8.31836C33.5732 9.21003 33.0691 11.0253 33.5224 12.7729C33.8535 14.0559 34.7471 15.0849 35.8983 15.51C38.9477 16.6143 40.7555 14.545 41.301 13.5649C42.0554 12.2048 42.4278 9.69913 40.4376 9.02944ZM26.799 9.02944C26.0898 8.79053 25.027 9.12538 24.2839 10.2089C25.4333 7.24422 27.0624 6.15315 27.0624 6.15315L25.2433 6.03275C24.5529 6.91314 24.1711 7.81045 23.9453 8.66638C23.4713 7.68629 21.8535 7.97975 21.3286 8.31836C19.9347 9.21003 19.4305 11.0253 19.8839 12.7729C20.215 14.0559 21.1085 15.0849 22.2598 15.51C25.3092 16.6143 27.117 14.545 27.6625 13.5649C28.415 12.2048 28.7893 9.69913 26.799 9.02944ZM14.0241 13.5649C13.4786 14.545 11.6708 16.6142 8.62145 15.51C7.47019 15.0848 6.57663 14.0559 6.24555 12.7729C5.79219 11.0253 6.29634 9.20999 7.69028 8.31832C8.21512 7.97971 9.83292 7.68625 10.307 8.66634C10.5327 7.81041 10.9146 6.9131 11.605 6.03271L13.4241 6.15311C13.4241 6.15311 11.795 7.24418 10.6456 10.2089C11.3886 9.12534 12.4515 8.79049 13.1607 9.0294C15.151 9.69909 14.7785 12.2048 14.0241 13.5649Z" fill="#C3E600"/>
<path fill-rule="evenodd" clip-rule="evenodd" d="M189.07 21.84C189.869 21.84 190.101 21.4017 190.264 20.9126H190.83C190.83 21.3321 190.633 22.5135 189.09 22.5135C187.505 22.5135 187.294 21.3528 187.294 20.9126H187.875C187.967 21.4337 188.257 21.84 189.07 21.84ZM187.435 27.7864H187.456L190.46 23.1982H191.538V29.3289H190.507V24.737H190.482L187.48 29.3289H186.402V23.1982H187.435V27.7864ZM184.179 25.7848C184.122 24.831 183.716 23.9507 182.452 23.9507C181.513 23.9507 180.774 24.831 180.774 25.7848H184.179ZM185.153 27.4044C184.921 28.3563 184.284 29.5019 182.395 29.5019C180.678 29.5019 179.671 28.2058 179.671 26.4338C179.671 24.5206 180.574 23.0232 182.6 23.0232C184.365 23.0232 185.236 24.436 185.236 26.6031H180.773C180.773 27.8691 181.362 28.6103 182.544 28.6103C183.509 28.6103 184.122 27.8559 184.122 27.4044H185.153ZM177.331 24.056H175.07V25.1697C175.07 26.479 174.931 27.4609 174.457 28.473H177.331V24.056ZM178.362 23.2002V28.4731H179.047V31.1293H178.108V29.329H173.646V31.1293H172.705V28.4731H173.39C173.958 27.4046 174.073 26.3417 174.073 25.1923V23.2002H178.362ZM167.737 27.7902H167.76L170.762 23.2002H171.842V29.329H170.809V24.7371H170.785L167.781 29.329H166.705V23.2002H167.737V27.7902ZM162.594 29.3289H161.283L159.765 27.0226L158.292 29.3289H156.994L159.141 26.178L157.098 23.1982L158.42 23.2001L159.835 25.354L161.249 23.2001H162.512L160.45 26.178L162.594 29.3289ZM152.012 27.7864H152.035L155.037 23.1982H156.115V29.3289H155.082V24.7389H155.062L152.059 29.3289H150.982V23.1982H152.012V27.7864ZM142.244 28.4692H144.83V23.1982H145.863V28.4692H148.448V23.1982H149.479V29.3289H141.213V23.1982H142.244V28.4692ZM137.206 28.6103C138.677 28.6103 138.989 27.0791 138.989 26.2589C138.989 25.4312 138.677 23.9131 137.206 23.9131C135.731 23.9131 135.417 25.4312 135.417 26.2589C135.417 27.0791 135.731 28.6103 137.206 28.6103ZM137.206 23.0213C139.166 23.0213 140.045 24.6805 140.045 26.2588C140.045 27.8352 139.166 29.5019 137.206 29.5019C135.246 29.5019 134.364 27.8352 134.364 26.2588C134.364 24.6805 135.246 23.0213 137.206 23.0213ZM129.211 26.2478C129.211 27.5796 129.732 28.6105 130.855 28.6105C131.504 28.6105 132.479 28.1685 132.479 26.5356C132.479 25.5273 132.373 23.949 130.889 23.949C129.29 23.949 129.211 25.4445 129.211 26.2478ZM128.178 23.1981H129.138V24.0672C129.476 23.5668 129.928 23.0213 130.995 23.0213C132.618 23.0213 133.532 24.3437 133.532 26.0819C133.532 27.5417 132.955 29.5019 130.867 29.5019C130.045 29.5019 129.499 29.1087 129.211 28.6102V31.7555H128.178V23.1981ZM124.17 28.6104C125.643 28.6104 125.953 27.0791 125.953 26.259C125.953 25.4312 125.643 23.915 124.17 23.915C122.699 23.915 122.385 25.4312 122.385 26.259C122.385 27.0791 122.699 28.6104 124.17 28.6104ZM124.17 23.0213C126.128 23.0213 127.01 24.6805 127.01 26.2588C127.01 27.8352 126.128 29.5019 124.17 29.5019C122.209 29.5019 121.329 27.8352 121.329 26.2588C121.329 24.6805 122.209 23.0213 124.17 23.0213ZM121.147 29.3289H119.836L118.318 27.0207L116.847 29.3289H115.549L117.693 26.1742L115.654 23.1982H116.975L118.389 25.3503L119.804 23.1982H121.066L119.002 26.1742L121.147 29.3289ZM110.396 24.0541H108.782C108.029 24.0541 107.632 24.3795 107.632 24.9947C107.632 25.6305 108.029 25.9353 108.782 25.9353H110.396V24.0541ZM111.425 29.3289H110.396V26.7423H109.083L107.632 29.3289H106.464L107.982 26.7122C107.414 26.5918 106.603 26.0275 106.603 24.9816C106.603 23.8247 107.437 23.1982 108.817 23.1982H111.425V29.3289ZM101.259 27.7864H101.285L104.288 23.1982H105.366V29.3289H104.333V24.7389H104.31L101.308 29.3289H100.228V23.1982H101.259V27.7864ZM94.831 25.6663H97.696V23.1982H98.725V29.3289H97.696V26.5222H94.831V29.3289H93.8001V23.1982H94.831V25.6663ZM91.0311 26.1986C90.8712 26.3284 90.6135 26.4206 89.3381 26.5824C88.8302 26.6539 88.0175 26.7912 88.0175 27.5681C88.0175 28.2378 88.3749 28.646 89.1424 28.646C90.1018 28.646 91.0311 28.0328 91.0311 27.2107V26.1986ZM87.265 25.0643C87.265 23.5951 88.2733 23.0232 89.7895 23.0232C90.2786 23.0232 92.0638 23.1643 92.0638 24.7388V28.2378C92.0638 28.4955 92.1918 28.6197 92.4006 28.6197C92.4927 28.6197 92.6188 28.599 92.7373 28.5764V29.3289C92.5605 29.3759 92.4118 29.4474 92.1805 29.4474C91.2643 29.4474 91.1345 28.9733 91.0894 28.5068C90.6849 28.9357 90.0698 29.5019 88.8753 29.5019C87.7485 29.5019 86.9621 28.7965 86.9621 27.728C86.9621 27 87.1465 25.9202 89.3061 25.7603C90.9163 25.6324 91.0311 25.5045 91.0311 24.8649C91.0311 24.1933 90.5796 23.881 89.6052 23.881C88.4351 23.881 88.2733 24.6015 88.215 25.0643H87.265ZM85.794 23.1982V29.3289H84.7631V24.056H81.9V29.3289H80.8672V23.2001L85.794 23.1982ZM74.1591 23.2002L76.0496 28.0084L77.9402 23.2002H79.3642V29.329H78.3559V25.7698C78.3559 25.1208 78.4161 24.4512 78.4161 24.4512H78.3352L76.4089 29.329H75.6678L73.7414 24.4512H73.6606C73.6606 24.4512 73.7208 25.1208 73.7208 25.7698V29.329H72.7106V23.2002H74.1591ZM68.7037 28.6104C70.1767 28.6104 70.4908 27.081 70.4908 26.259C70.4908 25.435 70.1767 23.915 68.7037 23.915C67.2308 23.915 66.9185 25.435 66.9185 26.259C66.9185 27.081 67.2308 28.6104 68.7037 28.6104ZM68.7037 23.0232C70.662 23.0232 71.5443 24.6824 71.5443 26.2588C71.5443 27.8352 70.662 29.5019 68.7037 29.5019C66.7417 29.5019 65.8632 27.8352 65.8632 26.2588C65.8632 24.6824 66.7417 23.0232 68.7037 23.0232ZM59.7918 24.9968L63.8721 20.9166H65.4372L61.9382 24.3121L65.5312 29.3291H64.0583L61.1124 25.1078L59.7918 26.3757V29.3291H58.6575V20.9166H59.7918V24.9968ZM255.405 44.0563V47.369H255.482C256.799 45.074 258.567 43.492 261.09 43.492C261.504 43.492 261.69 43.5296 261.991 43.6067V47.0643H260.674C257.551 47.0643 255.633 49.5117 255.633 52.4106V63.9627H252.282V44.0563H255.405ZM241.15 61.6285C245.928 61.6285 246.944 56.6623 246.944 53.991C246.944 51.3198 245.928 46.3892 241.15 46.3892C236.37 46.3892 235.354 51.3198 235.354 53.991C235.354 56.6623 236.37 61.6285 241.15 61.6285ZM241.149 43.492C247.508 43.492 250.371 48.8759 250.371 53.9907C250.371 59.1075 247.508 64.5271 241.149 64.5271C234.791 64.5271 231.93 59.1075 231.93 53.9907C231.93 48.8759 234.791 43.492 241.149 43.492ZM228.47 38.5635V44.096H231.668V46.8801H228.47V59.7886C228.47 61.254 229.785 61.3687 230.464 61.3687H231.631V63.9629C230.652 64.1491 229.486 64.2639 229.148 64.2639C225.837 64.2639 225.12 62.3827 225.12 59.9729V46.8801H222.449V44.096H225.12V38.5635H228.47ZM217.223 53.8029C216.696 54.2187 215.869 54.5196 211.73 55.0445C210.075 55.2683 207.439 55.7217 207.439 58.2443C207.439 60.4284 208.607 61.7433 211.09 61.7433C214.213 61.7433 217.223 59.7474 217.223 57.0761V53.8029ZM204.994 50.1155C204.994 45.3336 208.267 43.492 213.197 43.492C214.778 43.492 220.573 43.9435 220.573 49.0602V60.4281C220.573 61.2539 220.987 61.6696 221.664 61.6696C221.965 61.6696 222.379 61.5925 222.756 61.5191V63.9627C222.189 64.1132 221.702 64.3409 220.95 64.3409C217.976 64.3409 217.562 62.7983 217.411 61.2915C216.094 62.6873 214.1 64.5271 210.225 64.5271C206.576 64.5271 204.015 62.2321 204.015 58.7708C204.015 56.4005 204.616 52.8997 211.617 52.3729C216.847 51.9591 217.223 51.5433 217.223 49.4759C217.223 47.2919 215.756 46.2742 212.595 46.2742C208.794 46.2742 208.267 48.6106 208.079 50.1155H204.994ZM197.582 44.0563V47.369H197.657C198.974 45.074 200.744 43.492 203.267 43.492C203.679 43.492 203.867 43.5296 204.168 43.6067V47.0643H202.851C199.728 47.0643 197.808 49.5117 197.808 52.4106V63.9627H194.459V44.0563H197.582ZM177.495 53.9535C177.495 58.2839 179.188 61.6286 182.838 61.6286C184.944 61.6286 188.105 60.2008 188.105 54.8941C188.105 51.6208 187.766 46.5041 182.95 46.5041C177.757 46.5041 177.495 51.3575 177.495 53.9535ZM191.453 44.0563V62.3092C191.453 65.1667 191.38 72.317 182.198 72.317C179.827 72.317 175.273 71.6736 174.634 66.3763H177.982C178.584 69.2714 181.669 69.5366 182.461 69.5366C187.954 69.5366 188.105 65.2043 188.105 61.7035C187.164 63.2498 185.396 64.5271 182.724 64.5271C175.988 64.5271 174.067 58.1669 174.067 53.4283C174.067 47.7453 177.04 43.492 182.348 43.492C185.772 43.492 187.354 45.4108 188.33 46.8799V44.0563H191.453ZM169.821 52.4467C169.633 49.3616 168.317 46.5041 164.214 46.5041C161.166 46.5041 158.758 49.3616 158.758 52.4467H169.821ZM172.982 57.7154C172.23 60.8043 170.16 64.5271 164.026 64.5271C158.456 64.5271 155.183 60.3133 155.183 54.5551C155.183 48.3454 158.119 43.492 164.703 43.492C170.424 43.492 173.247 48.0782 173.247 55.1194H158.759C158.759 59.2241 160.677 61.6282 164.515 61.6282C167.638 61.6282 169.634 59.1865 169.634 57.7154H172.982ZM151.723 38.5635V44.096H154.921V46.8801H151.723V59.7886C151.723 61.254 153.042 61.3687 153.719 61.3687H154.885V63.9629C153.905 64.1491 152.739 64.2639 152.4 64.2639C149.089 64.2639 148.375 62.3827 148.375 59.9729V46.8801H145.703V44.096H148.375V38.5635H151.723ZM131.519 44.0563V46.8799H131.632C132.347 45.8246 134.192 43.492 137.614 43.492C140.703 43.492 144.578 44.7731 144.578 50.4165V63.9627H141.228V51.6938C141.228 48.2701 140.25 46.5037 136.976 46.5037C135.093 46.5037 131.745 47.7058 131.745 53.1273V63.9627H128.397V44.0563H131.519ZM121.662 63.961H125.011V44.0564H121.662V63.961ZM121.662 40.4449H125.011V36.6412H121.662V40.4449ZM112.971 63.9613H118.278V36.6412H112.971V63.9613ZM104.47 63.9613H109.775V36.6412H104.47V63.9613ZM96.7613 51.809C96.4604 48.5715 94.3516 47.5557 92.6604 47.5557C90.1378 47.5557 88.7815 49.1735 88.4824 51.809H96.7613ZM101.992 58.0167C100.6 62.872 96.5728 64.4954 93.1115 64.4954C87.4285 64.4954 83.0266 61.7433 83.0266 53.4285C83.0266 50.9812 83.8919 43.1932 92.7352 43.1932C98.4163 43.1932 102.218 46.314 102.218 53.278V55.2683H88.4819C88.4819 56.8127 88.8206 60.2383 93.1115 60.2383C94.6164 60.2383 96.1213 59.4464 96.5352 58.0167H101.992ZM64.3281 59.2601H71.2545C74.0386 59.2601 75.6583 58.0166 75.6583 55.2325C75.6583 52.8622 73.6248 51.9217 71.5555 51.9217H64.3281V59.2601ZM64.3281 47.3299H70.9893C73.2486 47.3299 75.0168 46.4645 75.0168 44.2824C75.0168 42.0607 73.4367 41.3459 70.8388 41.3459H64.3281V47.3299ZM58.649 36.6412H72.12C78.7812 36.6412 80.4742 40.8211 80.4742 43.6071C80.4742 47.5199 78.2921 48.6844 77.1634 49.2506C80.5119 50.4922 81.3377 53.1277 81.3377 55.797C81.3377 58.1334 80.4742 63.9631 70.3894 63.9631H58.649V36.6412Z" fill="#434650"/>
</svg>
