<svg width="80" height="82" viewBox="0 0 80 82" fill="none" xmlns="http://www.w3.org/2000/svg">
<path fill-rule="evenodd" clip-rule="evenodd" d="M43.2509 34.3827C42.4118 34.8495 40.9746 35.478 39.3238 35.478C36.7109 35.478 34.2813 33.879 33.0981 32.3701C32.5731 31.8013 30.1606 28.749 30.1606 20.8931C30.1606 15.7752 34.2708 11.6118 39.3238 11.6118C40.8043 11.6118 42.1539 12.1622 43.2509 12.7469C44.3479 12.162 45.6976 11.6118 47.1781 11.6118C52.2309 11.6118 56.3413 15.775 56.3413 20.8931C56.3413 27.8449 53.6186 32.0598 53.5033 32.2362C52.3396 34.0753 49.6155 35.478 47.1781 35.478C45.5273 35.478 44.0901 34.8495 43.2509 34.3827ZM42.5951 15.4105C41.6853 14.8762 40.4915 14.2637 39.3238 14.2637C35.7147 14.2637 32.7785 17.2376 32.7788 20.8932C32.7788 28.0821 35.0003 30.5483 35.0225 30.5722C35.0526 30.6041 35.0971 30.6544 35.1233 30.6889C35.9152 31.7245 37.6563 32.8263 39.324 32.8263C41.0114 32.8263 42.4552 31.7735 42.4696 31.7629C42.7013 31.5878 42.9762 31.5003 43.2511 31.5003C43.526 31.5003 43.8009 31.5879 44.0325 31.7629L44.0326 31.763C44.0495 31.7753 45.4955 32.8263 47.1782 32.8263C48.8537 32.8263 50.7008 31.7497 51.3121 30.7845C51.3474 30.7313 53.7233 26.9949 53.7233 20.8932C53.7233 17.2376 50.787 14.2637 47.1781 14.2637C46.0103 14.2637 44.8166 14.8762 43.9067 15.4105C43.501 15.6492 43.0009 15.6492 42.5951 15.4105Z" fill="#D7DEE7"/>
<path d="M42.1291 9.6428C42.3739 10.0564 42.8071 10.2859 43.2523 10.2859C43.4814 10.2859 43.7144 10.2249 43.9252 10.0964C44.5443 9.71987 44.7459 8.90569 44.3728 8.27718L40.4457 1.64763C40.0738 1.02052 39.2701 0.816351 38.6496 1.19423C38.0305 1.57072 37.8289 2.3849 38.202 3.01341L42.1291 9.6428Z" fill="#D7DEE7"/>
<path fill-rule="evenodd" clip-rule="evenodd" d="M48.2476 9.75438C47.1428 9.75438 46.3075 9.48247 46.2159 9.45201C45.8244 9.31947 45.5181 9.00918 45.3874 8.61281C45.3403 8.46551 44.2341 4.99574 46.6296 2.56795C47.6377 1.54696 48.9977 1.00732 50.5634 1.00732C51.6696 1.00732 52.5047 1.27924 52.5977 1.30969C52.9878 1.44223 53.2941 1.75252 53.425 2.14765C53.4734 2.29495 54.5782 5.76611 52.1827 8.19251C51.1761 9.21335 49.8146 9.75438 48.249 9.75438H48.2476ZM50.5632 3.65917C49.6939 3.65917 48.9936 3.92301 48.4804 4.44275C47.6924 5.24093 47.6557 6.35609 47.7357 7.07207C47.8901 7.08932 48.0643 7.10253 48.2488 7.10253C49.1168 7.10253 49.8184 6.83729 50.3316 6.31755C51.1196 5.51937 51.1563 4.40422 51.0763 3.68963C50.9219 3.67114 50.7477 3.65917 50.5632 3.65917Z" fill="#D7DEE7"/>
<path d="M74.668 38.1299H11.8339C9.66875 38.1299 7.90676 39.9146 7.90676 42.1076V47.4111C7.90676 48.143 8.49322 48.737 9.21575 48.737C9.93828 48.737 10.5247 48.143 10.5247 47.4111V42.1076C10.5247 41.377 11.1124 40.7817 11.8337 40.7817H15.7609V47.4113C15.7609 48.1431 16.3473 48.7371 17.0699 48.7371C17.7924 48.7371 18.3789 48.1431 18.3789 47.4113V40.7817H52.414V47.4113C52.414 48.1431 53.0005 48.7371 53.723 48.7371C54.4456 48.7371 55.032 48.1431 55.032 47.4113V40.7817H68.1224V47.4113C68.1224 48.1431 68.7089 48.7371 69.4314 48.7371C70.1539 48.7371 70.7404 48.1431 70.7404 47.4113V40.7817H74.6675C75.3888 40.7817 75.9765 41.377 75.9765 42.1076V51.3888H72.0494C71.3268 51.3888 70.7404 51.9828 70.7404 52.7147V64.6478H69.4314C68.7089 64.6478 68.1224 65.2418 68.1224 65.9736C68.1224 66.7055 68.7089 67.2995 69.4314 67.2995H73.3585V76.5807C73.3585 77.3113 72.7708 77.9066 72.0495 77.9066H31.4695V71.277C31.4695 70.5452 30.8831 69.9512 30.1605 69.9512C29.438 69.9512 28.8516 70.5452 28.8516 71.277V77.9066H26.2334V71.277C26.2334 70.5452 25.647 69.9512 24.9244 69.9512C24.2019 69.9512 23.6154 70.5452 23.6154 71.277V77.9066H20.9973V71.277C20.9973 70.5452 20.4108 69.9512 19.6883 69.9512C18.9658 69.9512 18.3793 70.5452 18.3793 71.277V77.9066H6.59792C5.87662 77.9066 5.28893 77.3113 5.28893 76.5807V71.2772C5.28893 70.5453 4.70247 69.9513 3.97994 69.9513C3.25741 69.9513 2.67094 70.5453 2.67094 71.2772V76.5807C2.67094 78.7737 4.43294 80.5584 6.59807 80.5584H72.0503C74.2154 80.5584 75.9774 78.7737 75.9774 76.5807V67.2995C75.9774 65.5771 74.6292 64.6476 73.3593 64.6476V54.0404H75.9774C77.2471 54.0404 78.5956 53.1109 78.5956 51.3885V42.1073C78.5951 39.9146 76.8331 38.1299 74.668 38.1299Z" fill="#D7DEE7"/>
<path fill-rule="evenodd" clip-rule="evenodd" d="M52.4142 65.9735C52.4142 66.7053 51.8277 67.2993 51.1052 67.2993V67.2995H3.97979C1.81465 67.2995 0.0526581 65.5148 0.0526581 63.3218V55.3664C0.0526581 53.1362 1.77799 51.3887 3.97979 51.3887H66.8139C67.5364 51.3887 68.1229 51.9827 68.1229 52.7145C68.1229 53.4464 67.5364 54.0404 66.8139 54.0404H65.5049V73.9289C65.5049 74.418 65.239 74.8675 64.8136 75.0982C64.6199 75.203 64.4077 75.2547 64.1957 75.2547C63.9418 75.2547 63.6892 75.1804 63.4692 75.0319L60.2686 72.8707L57.068 75.0319C56.6661 75.3024 56.1477 75.3276 55.7236 75.0982C55.298 74.8677 55.0323 74.4182 55.0323 73.9289V54.0404H36.7057V64.6476H51.1052C51.8277 64.6476 52.4142 65.2416 52.4142 65.9735ZM62.8864 54.0404H57.6503H57.6502V71.4507L59.5418 70.1738C59.9816 69.8769 60.555 69.8769 60.9948 70.1738L62.8864 71.4507V54.0404ZM15.761 54.0404H34.0877V64.6476H15.761V54.0404ZM2.6705 55.3662V63.3216C2.6705 64.0654 3.2453 64.6476 3.97964 64.6476H13.1427V54.0404H3.97949C3.23333 54.0404 2.6705 54.6105 2.6705 55.3662Z" fill="#D7DEE7"/>
<path d="M27.5424 56.6924C26.8199 56.6924 26.2334 57.2864 26.2334 58.0182V60.6701C26.2334 61.4019 26.8199 61.9959 27.5424 61.9959C28.265 61.9959 28.8514 61.4019 28.8514 60.6701V58.0182C28.8514 57.2864 28.265 56.6924 27.5424 56.6924Z" fill="#D7DEE7"/>
<path d="M22.3061 56.6924C21.5836 56.6924 20.9971 57.2864 20.9971 58.0182V60.6701C20.9971 61.4019 21.5836 61.9959 22.3061 61.9959C23.0287 61.9959 23.6151 61.4019 23.6151 60.6701V58.0182C23.6153 57.2864 23.0288 56.6924 22.3061 56.6924Z" fill="#D7DEE7"/>
</svg>
