<svg width="75" height="80" viewBox="0 0 75 80" fill="none" xmlns="http://www.w3.org/2000/svg">
<path fill-rule="evenodd" clip-rule="evenodd" d="M12.176 0H62.9485C69.5796 0 74.9735 5.38266 74.9734 12V68C74.9734 69.152 74.6568 70.2973 74.0582 71.312C73.8097 71.7347 73.3635 71.9694 72.9052 71.9694C72.6753 71.9694 72.4428 71.9106 72.2291 71.7853C71.5931 71.412 71.382 70.5947 71.7548 69.96C72.1115 69.3547 72.3013 68.6759 72.3013 68V12C72.3013 6.85344 68.1045 2.66672 62.9485 2.66672H12.176C7.02401 2.66672 2.83262 6.84531 2.82323 11.9841C2.82855 15.3 4.62025 18.3906 7.50078 20.0559C8.13805 20.4241 8.35851 21.24 7.98711 21.8773C7.61712 22.5133 6.80073 22.7306 6.16206 22.3627C2.4678 20.2292 0.16832 16.268 0.15094 12.0159V12V11.9839V11.9692V11.9533C0.176305 5.35859 5.5608 0 12.176 0ZM17.5206 71.9694H42.9067C43.6456 71.9694 44.2428 72.5669 44.2428 73.3028C44.2428 74.0387 43.6456 74.6361 42.9067 74.6361H17.5206C13.8368 74.6361 10.8399 71.6453 10.8399 67.9694V8.19734C9.28466 8.74797 8.16764 10.2306 8.16764 11.9694C8.16764 12.7053 7.57046 13.3027 6.83158 13.3027C6.09269 13.3027 5.49551 12.7053 5.49551 11.9694C5.49551 8.29328 8.49254 5.30266 12.1761 5.30266C12.915 5.30266 13.5122 5.9 13.5122 6.63594V67.9694C13.5122 70.1747 15.3106 71.9694 17.5206 71.9694ZM53.5956 19.9694C53.5956 20.7053 52.9984 21.3027 52.2595 21.3027H49.5872C48.8483 21.3027 48.2512 20.7053 48.2512 19.9694C48.2512 19.2334 48.8483 18.6361 49.5872 18.6361H52.2595C52.9984 18.6361 53.5956 19.2334 53.5956 19.9694ZM45.579 27.9694C45.579 28.7053 46.1762 29.3027 46.9151 29.3027H60.2762C61.0151 29.3027 61.6123 28.7053 61.6123 27.9694C61.6123 27.2334 61.0151 26.6361 60.2762 26.6361H46.9151C46.1762 26.6359 45.579 27.2333 45.579 27.9694ZM53.5957 35.9694C53.5957 36.7053 54.1929 37.3027 54.9318 37.3027H62.9485C63.6874 37.3027 64.2846 36.7053 64.2846 35.9694C64.2846 35.2334 63.6874 34.6361 62.9485 34.6361H54.9318C54.1929 34.6359 53.5957 35.2333 53.5957 35.9694ZM36.2261 34.6359C35.4872 34.6359 34.89 35.2333 34.89 35.9692C34.89 36.7052 35.4872 37.3025 36.2261 37.3025H49.5872C50.3261 37.3025 50.9233 36.7052 50.9233 35.9692C50.9233 35.2333 50.3261 34.6359 49.5872 34.6359H36.2261ZM22.865 29.3027H41.5707C42.3096 29.3027 42.9067 28.7053 42.9067 27.9694C42.9067 27.2334 42.3096 26.6361 41.5707 26.6361H22.865C22.1261 26.6361 21.5289 27.2334 21.5289 27.9694C21.5289 28.7053 22.1261 29.3027 22.865 29.3027ZM28.2094 21.3027H22.865C22.1261 21.3027 21.5289 20.7053 21.5289 19.9694C21.5289 19.2334 22.1261 18.6361 22.865 18.6361H28.2094C28.9483 18.6361 29.5455 19.2334 29.5455 19.9694C29.5455 20.7053 28.9483 21.3027 28.2094 21.3027ZM44.2428 18.6359H33.5538C32.8149 18.6359 32.2178 19.2333 32.2178 19.9692C32.2178 20.7052 32.8149 21.3025 33.5538 21.3025H44.2428C44.9817 21.3025 45.5789 20.7052 45.5789 19.9692C45.579 19.2333 44.9817 18.6359 44.2428 18.6359ZM66.9568 61.3027C66.9568 56.8906 63.3614 53.3027 58.9401 53.3027C54.5189 53.3027 50.9234 56.8906 50.9234 61.3027C50.9234 65.7147 54.5189 69.3027 58.9401 69.3027C63.3614 69.3027 66.9568 65.7147 66.9568 61.3027ZM54.7032 71.1253C55.0733 70.488 55.8911 70.2694 56.5284 70.6373C57.1685 71.0053 57.3875 71.8214 57.0188 72.4584L53.0599 79.3011C52.8274 79.7011 52.4039 79.9531 51.9429 79.9678H51.9014C51.4538 79.9678 51.0343 79.7439 50.7871 79.3692L49.5085 77.4372L47.193 77.2986C46.7294 77.272 46.3151 77.0066 46.096 76.6C45.877 76.1934 45.8837 75.7014 46.1148 75.3014L50.1191 68.38C50.4893 67.7414 51.3069 67.5227 51.9456 67.892C52.5842 68.2602 52.8033 69.0761 52.4346 69.7134L49.5097 74.7667L50.3355 74.8161C50.7551 74.84 51.1386 75.0614 51.3697 75.412L51.8266 76.1L54.7032 71.1253ZM67.7959 68.4427C67.4258 67.8041 66.6067 67.5853 65.9707 67.9547C65.3308 68.3227 65.1116 69.1388 65.4803 69.7759L68.3704 74.7666L67.5446 74.8159C67.1251 74.8413 66.7417 75.0627 66.5092 75.4119L66.0549 76.0998L63.193 71.1505C62.8216 70.5131 62.0039 70.2945 61.3666 70.6625C60.7279 71.0305 60.5089 71.8466 60.8776 72.4839L64.8218 79.3013C65.0543 79.7013 65.4778 79.9533 65.9388 79.968H65.9803C66.4265 79.968 66.8474 79.7439 67.0959 79.3694L68.3732 77.4388L70.6874 77.2988C71.151 77.272 71.5652 77.0067 71.7844 76.6002C72.0036 76.1936 71.9954 75.7016 71.7657 75.3016L67.7959 68.4427ZM30.8817 37.3027H22.865C22.1261 37.3027 21.5289 36.7053 21.5289 35.9694C21.5289 35.2334 22.1261 34.6361 22.865 34.6361H30.8817C31.6206 34.6361 32.2178 35.2334 32.2178 35.9694C32.2178 36.7053 31.6206 37.3027 30.8817 37.3027ZM22.865 45.3027H38.8984C39.6373 45.3027 40.2345 44.7053 40.2345 43.9694C40.2345 43.2334 39.6373 42.6361 38.8984 42.6361H22.865C22.1261 42.6361 21.5289 43.2334 21.5289 43.9694C21.5289 44.7053 22.1261 45.3027 22.865 45.3027ZM24.7982 62.4959C24.1382 62.8239 23.3352 62.5572 23.0065 61.8986C21.2402 58.3747 20.9931 55.12 22.3252 52.9681C23.2564 51.4641 24.8718 50.6361 26.8733 50.6361C28.629 50.6361 29.5937 51.4947 30.0947 52.2161C31.2412 53.8667 31.1128 56.5147 30.6733 58.812C31.7861 58.1457 32.2463 58.335 32.6026 58.4816L32.6053 58.4827C33.129 58.6986 33.4738 59.1772 33.5419 59.7586C34.4291 59.1372 35.4003 58.6359 36.2261 58.6359C36.9181 58.6359 37.5114 58.952 37.8521 59.5027C38.1742 60.0227 38.2008 60.668 38.0926 61.3027H41.5705C42.3094 61.3027 42.9066 61.9 42.9066 62.6359C42.9066 63.3719 42.3094 63.9692 41.5705 63.9692H36.2261C35.7639 63.9692 35.335 63.7292 35.0904 63.3372C34.8471 62.9453 34.8244 62.4545 35.0289 62.0412C35.0449 62.0106 35.061 61.9786 35.077 61.9453C34.481 62.3745 33.773 62.9706 33.1623 63.5786C32.7789 63.9598 32.2057 64.0745 31.706 63.8666C31.2064 63.6612 30.8817 63.1745 30.8817 62.6359V61.9839C30.3432 62.4439 29.7246 63.0106 29.154 63.5786C28.709 64.0212 28.0129 64.0945 27.4865 63.7572C26.9574 63.4172 26.7369 62.7558 26.9574 62.1678C27.9474 59.5278 28.8933 55.1666 27.8979 53.7345C27.7483 53.5211 27.5104 53.3025 26.8732 53.3025C25.8015 53.3025 25.0373 53.6612 24.599 54.3692C23.7761 55.6986 24.0726 58.0666 25.3954 60.7066C25.7269 61.3653 25.4582 62.1666 24.7982 62.4959ZM58.9401 43.9694C58.9401 43.2334 58.343 42.6361 57.6041 42.6361H44.243C43.5041 42.6361 42.9069 43.2334 42.9069 43.9694C42.9069 44.7053 43.5041 45.3027 44.243 45.3027H57.6041C58.343 45.3027 58.9401 44.7053 58.9401 43.9694ZM53.5957 61.3027C53.5957 64.2439 55.9926 66.6359 58.9401 66.6359C61.8877 66.6359 64.2846 64.2439 64.2846 61.3027C64.2846 58.3614 61.8877 55.9694 58.9401 55.9694C55.9928 55.9694 53.5957 58.3614 53.5957 61.3027Z" fill="#D7DEE7"/>
</svg>
