<svg width="75" height="75" viewBox="0 0 75 75" fill="none" xmlns="http://www.w3.org/2000/svg">
<path d="M37.498 2.92969C36.6892 2.92969 36.0332 3.5855 36.0332 4.39453V13.1093C36.0332 13.9184 36.6892 14.5742 37.498 14.5742C38.3069 14.5742 38.9629 13.9184 38.9629 13.1093V4.39453C38.9629 3.5855 38.3069 2.92969 37.498 2.92969Z" fill="#D7DEE7"/>
<path d="M29.1979 15.4367L25.6931 11.935C25.1205 11.3631 24.1932 11.3635 23.6214 11.9359C23.0496 12.5082 23.0501 13.4356 23.6222 14.0074L27.1272 17.5091C27.4133 17.7949 27.788 17.9378 28.1625 17.9378C28.5377 17.9378 28.9127 17.7945 29.1988 17.5083C29.7705 16.936 29.77 16.0086 29.1979 15.4367Z" fill="#D7DEE7"/>
<path d="M51.3776 11.9385C50.8053 11.3664 49.8777 11.367 49.3059 11.9392L45.5797 15.6683C45.008 16.2406 45.0084 17.168 45.5806 17.7398C45.8667 18.0258 46.2416 18.1686 46.6161 18.1686C46.9913 18.1686 47.3663 18.0253 47.6523 17.7391L51.3785 14.0101C51.9502 13.4377 51.9497 12.5103 51.3776 11.9385Z" fill="#D7DEE7"/>
<path d="M65.4053 41.6017H64.2231C65.1879 40.3441 65.7631 38.7728 65.7631 37.069V35.0017C65.7631 30.8868 62.4155 27.5392 58.3008 27.5392C54.186 27.5392 50.8384 30.8868 50.8384 35.0016V36.6086L39.8183 25.5883C39.2067 24.9769 38.3073 24.7806 37.5001 25.0721C36.6933 24.7806 35.7936 24.9769 35.1819 25.5885L24.1619 36.6086V35.0016C24.1616 30.8868 20.814 27.5392 16.6992 27.5392C12.5845 27.5392 9.23687 30.8868 9.23687 35.0016V37.0689C9.23687 38.7728 9.81211 40.344 10.7769 41.6016H9.59473C4.30415 41.6017 0 45.9058 0 51.1964V70.6056C0 71.4146 0.655957 72.0704 1.46484 72.0704H7.65381C7.80029 72.0704 7.9415 72.0483 8.07495 72.0083C8.2084 72.0483 8.34961 72.0704 8.49609 72.0704H24.9023C25.7112 72.0704 26.3672 71.4146 26.3672 70.6056V65.6251C26.3672 64.8161 25.7112 64.1603 24.9023 64.1603C24.0935 64.1603 23.4375 64.8161 23.4375 65.6251V69.1408H9.96094V52.4493C9.96094 51.6403 9.30498 50.9845 8.49609 50.9845C7.68721 50.9845 7.03125 51.6403 7.03125 52.4493V69.1408H2.92969V51.1964C2.92969 47.5213 5.91958 44.5314 9.59473 44.5314H19.7754C20.1785 44.5314 20.5436 44.3683 20.8084 44.105C20.8094 44.1039 20.8103 44.1034 20.8113 44.1025L36.0265 28.8871C35.9268 31.9293 34.9805 34.8595 33.2745 37.3932L23.6874 51.6312C23.5247 51.873 23.4376 52.158 23.4376 52.4493V54.0529C23.4376 54.8619 24.0936 55.5177 24.9025 55.5177C25.7114 55.5177 26.3673 54.8619 26.3673 54.0529V52.8964L35.7047 39.0293C36.4181 37.9698 37.0163 36.8503 37.5001 35.6883C37.984 36.8503 38.5821 37.9698 39.2956 39.0293L48.6328 52.8964V70.6056C48.6328 71.4146 49.2888 72.0704 50.0977 72.0704H66.5039C66.6504 72.0704 66.7916 72.0483 66.925 72.0083C67.0585 72.0483 67.1997 72.0704 67.3462 72.0704H73.5352C74.344 72.0704 75 71.4146 75 70.6056V51.1964C75 45.9058 70.6958 41.6017 65.4053 41.6017ZM21.2319 37.0689C21.2319 39.5683 19.1987 41.6017 16.6992 41.6017C14.1998 41.6017 12.1666 39.5684 12.1666 37.069V35.0017C12.1666 32.5022 14.1999 30.4689 16.6992 30.4689C19.1985 30.4689 21.2319 32.5022 21.2319 35.0016V37.0689ZM53.7681 35.0016C53.7681 32.5022 55.8015 30.4689 58.3008 30.4689C60.8001 30.4689 62.8334 32.5022 62.8334 35.0016V37.0689C62.8334 39.5683 60.8002 41.6017 58.3008 41.6017C55.8013 41.6017 53.7681 39.5684 53.7681 37.069V35.0016ZM72.0703 69.1408H67.9688V58.3009C67.9688 57.4919 67.3128 56.8361 66.5039 56.8361C65.695 56.8361 65.0391 57.4919 65.0391 58.3009V69.1408H51.5625V52.4493C51.5625 52.1578 51.4755 51.8729 51.3127 51.6312L41.7256 37.3933C40.0197 34.8596 39.0734 31.9295 38.9736 28.8873L54.1888 44.1025C54.2082 44.1218 54.2263 44.1381 54.2439 44.1526C54.5036 44.3874 54.847 44.5317 55.2246 44.5317H65.4053C69.0804 44.5317 72.0703 47.5216 72.0703 51.1967V69.1408Z" fill="#D7DEE7"/>
<path d="M67.5394 51.4131C67.2671 51.1406 66.8892 50.9839 66.5039 50.9839C66.1187 50.9839 65.7407 51.1406 65.4683 51.4131C65.1958 51.6856 65.0391 52.0635 65.0391 52.4487C65.0391 52.834 65.1957 53.2119 65.4683 53.4844C65.7407 53.7568 66.1187 53.9136 66.5039 53.9136C66.8892 53.9136 67.2671 53.7568 67.5394 53.4844C67.8119 53.2119 67.9688 52.834 67.9688 52.4487C67.9688 52.0635 67.812 51.687 67.5394 51.4131Z" fill="#D7DEE7"/>
<path d="M25.9378 59.1694C25.6655 58.897 25.2876 58.7402 24.9023 58.7402C24.5171 58.7402 24.1392 58.897 23.8667 59.1694C23.5942 59.4419 23.4375 59.8198 23.4375 60.2051C23.4375 60.5903 23.5941 60.9683 23.8667 61.2407C24.1393 61.5132 24.5171 61.6699 24.9023 61.6699C25.2876 61.6699 25.6655 61.5132 25.9378 61.2407C26.2103 60.9683 26.3672 60.5903 26.3672 60.2051C26.3672 59.8198 26.2104 59.4419 25.9378 59.1694Z" fill="#D7DEE7"/>
</svg>
