<svg width="75" height="75" viewBox="0 0 75 75" fill="none" xmlns="http://www.w3.org/2000/svg">
<path d="M31.8238 54.4072C31.5513 54.1333 31.1734 53.978 30.7867 53.978C30.4014 53.978 30.0249 54.1333 29.751 54.4072C29.4786 54.6797 29.3233 55.0562 29.3233 55.4429C29.3233 55.8281 29.4786 56.2061 29.751 56.4784C30.0249 56.7508 30.4014 56.9077 30.7867 56.9077C31.1734 56.9077 31.5499 56.751 31.8238 56.4784C32.0962 56.2061 32.253 55.8281 32.253 55.4429C32.253 55.056 32.0962 54.6797 31.8238 54.4072Z" fill="#D7DEE7"/>
<path d="M64.3027 25.2359H59.2518C61.0715 23.4207 62.1993 20.9118 62.1993 18.1444V6.48779V1.46484C62.1993 0.655811 61.5435 0 60.7345 0H49.338C45.3784 0 42.157 3.22134 42.157 7.18096V11.9958C42.157 12.006 42.1583 12.0158 42.1585 12.0259C42.1583 12.036 42.157 12.046 42.157 12.0561V18.1444C42.157 20.9118 43.2848 23.4205 45.1046 25.2359H29.3046C31.1244 23.4207 32.2522 20.9118 32.2522 18.1444V6.48779V1.46484C32.2522 0.655811 31.5964 0 30.7874 0H19.3909C15.4312 0 12.2099 3.22134 12.2099 7.18096V11.9958C12.2099 12.006 12.2112 12.0158 12.2114 12.0259C12.2112 12.036 12.2099 12.046 12.2099 12.0561V18.1444C12.2099 20.9118 13.3377 23.4205 15.1575 25.2359H11.8513C5.3165 25.2359 0 30.5524 0 37.0874V55.4424C0 56.2513 0.655811 56.9073 1.46484 56.9073H24.6094C25.4184 56.9073 26.0742 56.2513 26.0742 55.4424C26.0742 54.6335 25.4184 53.9776 24.6094 53.9776H9.55254V44.5204C9.55254 43.7115 8.89673 43.0556 8.0877 43.0556C7.27866 43.0556 6.62285 43.7115 6.62285 44.5204V53.9776H2.92969V37.0874C2.92969 32.168 6.93193 28.1656 11.8515 28.1656H15.962L20.7662 35.3528V44.0836C20.7662 44.8925 21.422 45.5484 22.2311 45.5484C23.0401 45.5484 23.6959 44.8925 23.6959 44.0836V35.3917L29.0464 28.1656H34.3557C38.6388 28.1656 42.1233 31.6501 42.1233 35.9332V41.9426C42.1233 42.7515 42.7792 43.4074 43.5882 43.4074C44.3972 43.4074 45.053 42.7515 45.053 41.9426V35.9332C45.053 32.8762 43.7621 30.1167 41.6991 28.1656H45.6136L50.665 35.7224C50.9298 36.1188 51.371 36.3614 51.8476 36.3728C51.8594 36.3731 51.8711 36.3732 51.8829 36.3732C52.3463 36.3732 52.7834 36.1537 53.06 35.7801L58.698 28.1657H64.3027C68.5857 28.1657 72.0703 31.6503 72.0703 35.9333V41.9427C72.0703 42.7516 72.7261 43.4076 73.5352 43.4076C74.3442 43.4076 75 42.7516 75 41.9427V35.9333C75 30.0347 70.2012 25.2359 64.3027 25.2359ZM15.1397 7.18096C15.1397 4.83677 17.0468 2.92969 19.391 2.92969H29.3227V6.48779C29.3227 8.71714 27.509 10.5309 25.2795 10.5309H15.1397V7.18096ZM22.2923 32.3641L19.4858 28.1656H25.401L22.2923 32.3641ZM22.2312 25.236C18.3209 25.236 15.1397 22.0548 15.1397 18.1446V13.4606H25.2795C26.786 13.4606 28.1812 12.9788 29.3227 12.1633V18.1446C29.3227 22.0548 26.1415 25.236 22.2312 25.236ZM45.0866 7.18096C45.0867 4.83677 46.9939 2.92969 49.338 2.92969H59.2696V6.48779C59.2696 8.71714 57.456 10.5309 55.2265 10.5309H45.0866V7.18096ZM51.9439 32.3641L49.1375 28.1656H55.0526L51.9439 32.3641ZM52.1783 25.236C48.2681 25.236 45.0867 22.0548 45.0867 18.1446V13.4606H55.2267C56.7331 13.4606 58.1284 12.9788 59.2698 12.1633V18.1446C59.2698 22.0548 56.0886 25.236 52.1783 25.236Z" fill="#D7DEE7"/>
<path d="M69.6394 45.7744H62.826V42.9573C62.826 41.0309 61.2586 39.4634 59.332 39.4634H51.703C49.7764 39.4634 48.209 41.0308 48.209 42.9573V45.7744H41.3956C38.4398 45.7744 36.035 48.179 36.035 51.135V69.6395C36.0351 72.5954 38.44 75 41.3957 75H69.6395C72.5952 75 75 72.5954 75 69.6395V51.135C75 48.179 72.5952 45.7744 69.6394 45.7744ZM51.7031 42.3931H59.3322C59.6433 42.3931 59.8964 42.6462 59.8964 42.9573V45.7744H51.139V42.9573H51.1388C51.1388 42.6462 51.392 42.3931 51.7031 42.3931ZM72.0703 69.6395C72.0703 70.9799 70.9799 72.0704 69.6394 72.0704H41.3957C40.0554 72.0704 38.9648 70.9799 38.9648 69.6395V59.052H51.6178V59.2916C51.6178 61.4419 53.3672 63.1912 55.5176 63.1912C57.6679 63.1912 59.4173 61.4419 59.4173 59.2916V59.052H72.0703V69.6395ZM54.5475 59.2916V57.3477H56.4876V59.2916C56.4876 59.8263 56.0525 60.2615 55.5176 60.2615C54.9826 60.2615 54.5475 59.8263 54.5475 59.2916ZM72.0703 56.1223H59.4173V55.8828C59.4173 55.0739 58.7615 54.418 57.9524 54.418H53.0828C52.2738 54.418 51.618 55.0739 51.618 55.8828V56.1223H38.9648V51.135C38.9648 49.7946 40.0552 48.704 41.3957 48.704H49.674H61.3611H69.6394C70.9797 48.704 72.0703 49.7945 72.0703 51.135V56.1223Z" fill="#D7DEE7"/>
</svg>
