<svg width="75" height="80" viewBox="0 0 75 80" fill="none" xmlns="http://www.w3.org/2000/svg">
<path fill-rule="evenodd" clip-rule="evenodd" d="M16.2316 34.7826C16.9116 34.7826 17.4635 34.1832 17.4635 33.4448V23.5691L21.7098 21.2641C22.1274 21.0366 22.391 20.5738 22.391 20.0668V8.85355L28.5505 5.50913L34.71 8.85355V20.0668C34.71 20.8052 35.2619 21.4046 35.9419 21.4046C36.6218 21.4046 37.1739 20.8052 37.1739 20.0668V8.02674C37.1739 7.51974 36.9102 7.05679 36.4926 6.82947L29.7825 3.18655V1.33774C29.7825 0.59934 29.2306 0 28.5507 0C27.8707 0 27.3188 0.59934 27.3188 1.33774V3.18655L20.6087 6.82931C20.1911 7.05679 19.9275 7.51958 19.9275 8.02658V19.2399L15.6812 21.5449C15.2635 21.7724 14.9999 22.2352 14.9999 22.7422V33.4445C14.9998 34.1832 15.5517 34.7826 16.2316 34.7826ZM47.49 22.3189C47.49 23.0549 46.9322 23.6522 46.245 23.6522C45.5578 23.6522 45 23.0549 45 22.3188V15.6521C45 15.0402 45.3885 14.5068 45.9426 14.3588L59.9407 10.6108V8.98553C59.9407 8.24959 60.4985 7.65225 61.1858 7.65225C61.873 7.65225 62.4308 8.24959 62.4308 8.98553V34.7281L71.5833 38.4028C72.0689 38.5989 72.3913 39.0963 72.3913 39.6522V54.3189C72.3913 55.0548 71.8335 55.6522 71.1463 55.6522C70.4591 55.6522 69.9013 55.0548 69.9013 54.3189V40.5763L60.7488 36.9016C60.2632 36.7055 59.9407 36.2081 59.9407 35.6522V13.3602L47.49 16.6936V22.3189ZM52.8262 22.9566V20.1739C52.8262 19.406 52.2418 18.7826 51.5219 18.7826C50.8019 18.7826 50.2175 19.406 50.2175 20.1739V22.9566C50.2175 23.7245 50.8019 24.3478 51.5219 24.3478C52.2418 24.3478 52.8262 23.7245 52.8262 22.9566ZM42.3914 36.1739C42.3914 35.4059 41.807 34.7826 41.0871 34.7826C40.3671 34.7826 39.7827 35.4059 39.7827 36.1739V38.9566C39.7827 39.7245 40.3671 40.3479 41.0871 40.3479C41.807 40.3479 42.3914 39.7245 42.3914 38.9566V36.1739ZM52.8262 36.1739C52.8262 35.4059 52.2418 34.7826 51.5219 34.7826C50.8019 34.7826 50.2175 35.4059 50.2175 36.1739V38.9566C50.2175 39.7245 50.8019 40.3479 51.5219 40.3479C52.2418 40.3479 52.8262 39.7245 52.8262 38.9566V36.1739ZM46.3043 50.7826C47.0243 50.7826 47.6087 51.4059 47.6087 52.1739V54.9566C47.6087 55.7246 47.0243 56.3479 46.3043 56.3479C45.5844 56.3479 45 55.7246 45 54.9566V52.1739C45 51.4059 45.5844 50.7826 46.3043 50.7826ZM45 68.0579C45 67.3539 45.5844 66.7826 46.3043 66.7826C47.0245 66.7826 47.6088 67.3539 47.6087 68.0579V73.1594C47.6087 73.8633 47.0243 74.4347 46.3043 74.4347C45.5844 74.4347 45 73.8633 45 73.1594V68.0579ZM46.3043 42.4348C47.0243 42.4348 47.6087 43.0581 47.6087 43.8261V46.6088C47.6087 47.3767 47.0243 48 46.3043 48C45.5844 48 45 47.3767 45 46.6088V43.8261C45 43.0581 45.5844 42.4348 46.3043 42.4348ZM47.6087 59.826C47.6087 59.0581 47.0243 58.4348 46.3044 58.4348C45.5845 58.4348 45 59.0581 45 59.826V62.6087C45 63.3766 45.5843 64 46.3043 64C47.0242 64 47.6085 63.3766 47.6085 62.6087V59.826H47.6087ZM51.5219 42.4348C52.2418 42.4348 52.8262 43.0581 52.8262 43.8261V46.6088C52.8262 47.3767 52.2418 48 51.5219 48C50.8019 48 50.2175 47.3767 50.2175 46.6088V43.8261C50.2175 43.0581 50.8019 42.4348 51.5219 42.4348ZM46.3043 34.7826C47.0243 34.7826 47.6087 35.4059 47.6087 36.1739V38.9566C47.6087 39.7245 47.0243 40.3479 46.3043 40.3479C45.5844 40.3479 45 39.7245 45 38.9566V36.1739C45 35.4059 45.5844 34.7826 46.3043 34.7826ZM41.0871 42.4348C41.807 42.4348 42.3914 43.0581 42.3914 43.8261V46.6088C42.3914 47.3767 41.807 48 41.0871 48C40.3671 48 39.7827 47.3767 39.7827 46.6088V43.8261C39.7827 43.0581 40.3671 42.4348 41.0871 42.4348ZM57.3914 20.1739C57.3914 19.406 56.807 18.7826 56.0871 18.7826C55.3671 18.7826 54.7827 19.406 54.7827 20.1739V22.9566C54.7827 23.7245 55.3671 24.3478 56.0871 24.3478C56.807 24.3478 57.3914 23.7245 57.3914 22.9566V20.1739ZM39.7827 52.1739C39.7827 51.4059 40.3671 50.7826 41.0871 50.7826C41.807 50.7826 42.3914 51.4059 42.3914 52.1739V54.9566C42.3914 55.7246 41.807 56.3479 41.0871 56.3479C40.3671 56.3479 39.7827 55.7246 39.7827 54.9566V52.1739ZM62.6087 59.826C62.6087 59.0581 62.0243 58.4348 61.3044 58.4348C60.5845 58.4348 60 59.0581 60 59.826V62.6087C60 63.3766 60.5843 64 61.3043 64C62.0242 64 62.6085 63.3766 62.6085 62.6087V59.826H62.6087ZM60 68.0579C60 67.3539 60.5844 66.7826 61.3043 66.7826C62.0245 66.7826 62.6088 67.3539 62.6087 68.0579V73.1594C62.6087 73.8633 62.0243 74.4347 61.3043 74.4347C60.5844 74.4347 60 73.8633 60 73.1594V68.0579ZM66.5216 50.7826C65.8017 50.7826 65.2173 51.4059 65.2173 52.1739V54.9566C65.2173 55.7246 65.8017 56.3479 66.5216 56.3479C67.2416 56.3479 67.826 55.7246 67.826 54.9566V52.1739C67.826 51.4059 67.2416 50.7826 66.5216 50.7826ZM67.826 43.8261C67.826 43.0581 67.2416 42.4348 66.5216 42.4348C65.8017 42.4348 65.2173 43.0581 65.2173 43.8261V46.6088C65.2173 47.3767 65.8017 48 66.5216 48C67.2416 48 67.826 47.3767 67.826 46.6088V43.8261ZM61.3043 42.4348C62.0243 42.4348 62.6087 43.0581 62.6087 43.8261V46.6088C62.6087 47.3767 62.0243 48 61.3043 48C60.5844 48 60 47.3767 60 46.6088V43.8261C60 43.0581 60.5844 42.4348 61.3043 42.4348ZM52.8262 59.826C52.8262 59.0581 52.2418 58.4348 51.5219 58.4348C50.8019 58.4348 50.2175 59.0581 50.2175 59.826V62.6087C50.2175 63.3766 50.8019 64 51.5219 64C52.2418 64 52.8262 63.3766 52.8262 62.6087V59.826ZM61.3043 50.7826C62.0243 50.7826 62.6087 51.4059 62.6087 52.1739V54.9566C62.6087 55.7246 62.0243 56.3479 61.3043 56.3479C60.5844 56.3479 60 55.7246 60 54.9566V52.1739C60 51.4059 60.5844 50.7826 61.3043 50.7826ZM51.5219 66.7826C50.8019 66.7826 50.2175 67.3539 50.2175 68.0579V73.1594C50.2175 73.8633 50.8019 74.4347 51.5219 74.4347C52.2418 74.4347 52.8262 73.8633 52.8262 73.1594V68.0579C52.8262 67.3539 52.2418 66.7826 51.5219 66.7826ZM51.5219 50.7826C52.2418 50.7826 52.8262 51.4059 52.8262 52.1739V54.9566C52.8262 55.7246 52.2418 56.3479 51.5219 56.3479C50.8019 56.3479 50.2175 55.7246 50.2175 54.9566V52.1739C50.2175 51.4059 50.8019 50.7826 51.5219 50.7826ZM56.1594 75.1304C56.8393 75.1304 57.3912 74.5316 57.3912 73.794V31.0297C57.3912 30.4163 57.0056 29.8818 56.4586 29.7335L36.7485 24.3878C36.3827 24.2876 35.9896 24.3784 35.6915 24.631C35.3921 24.8836 35.2173 25.2725 35.2173 25.6841V55.0844C35.2173 55.8221 35.7692 56.4208 36.4491 56.4208C37.1291 56.4208 37.681 55.8221 37.681 55.0844V27.3961L54.9274 32.0735V73.794C54.9275 74.5316 55.4794 75.1304 56.1594 75.1304ZM26.0868 26.4348C26.8068 26.4348 27.3912 27.0581 27.3912 27.826V30.6087C27.3912 31.3767 26.8068 32 26.0868 32C25.3669 32 24.7825 31.3767 24.7825 30.6087V27.826C24.7825 27.0581 25.3669 26.4348 26.0868 26.4348ZM27.3912 20.1739C27.3912 19.406 26.8068 18.7826 26.0868 18.7826C25.3669 18.7826 24.7825 19.406 24.7825 20.1739V22.9566C24.7825 23.7245 25.3669 24.3478 26.0868 24.3478C26.8068 24.3478 27.3912 23.7245 27.3912 22.9566V20.1739ZM16.3044 58.4348C17.0243 58.4348 17.6087 59.0581 17.6087 59.826H17.6085V62.6087C17.6085 63.3766 17.0242 64 16.3043 64C15.5843 64 15 63.3766 15 62.6087V59.826C15 59.0581 15.5845 58.4348 16.3044 58.4348ZM6.47515 48.2981C7.16938 48.2981 7.73288 47.6971 7.73288 46.9565V40.2484H20.3105V73.7888C20.3105 74.5293 20.874 75.1303 21.5683 75.1303C22.2625 75.1303 22.826 74.5293 22.826 73.7888V38.9068C22.826 38.1663 22.2625 37.5653 21.5683 37.5653H6.47501C5.78078 37.5653 5.21729 38.1663 5.21729 38.9068V46.9565C5.21729 47.6971 5.78078 48.2981 6.47515 48.2981ZM20.2173 30.6087V27.826C20.2173 27.0581 20.8017 26.4348 21.5216 26.4348C22.2416 26.4348 22.826 27.0581 22.826 27.826V30.6087C22.826 31.3767 22.2416 32 21.5216 32C20.8017 32 20.2173 31.3767 20.2173 30.6087ZM27.3912 11.8261C27.3912 11.0582 26.8068 10.4348 26.0868 10.4348C25.3669 10.4348 24.7825 11.0582 24.7825 11.8261V14.6088C24.7825 15.3767 25.3669 16 26.0868 16C26.8068 16 27.3912 15.3767 27.3912 14.6088V11.8261ZM15 68.0579C15 67.3539 15.5844 66.7826 16.3043 66.7826C17.0245 66.7826 17.6088 67.3539 17.6087 68.0579V73.1594C17.6087 73.8633 17.0243 74.4347 16.3043 74.4347C15.5844 74.4347 15 73.8633 15 73.1594V68.0579ZM73.7501 77.3438H71.25V69.1869C73.3999 68.5933 75 66.5307 75 64.0631C75 61.1334 72.7575 58.751 70.0001 58.751C67.2426 58.751 65.0001 61.1335 65.0001 64.0631C65.0001 66.5307 66.6002 68.5931 68.7501 69.1869V77.3438H37.5V71.8975C40.3487 71.28 42.5 68.5986 42.5 65.3913C42.5 61.7299 39.6962 58.751 36.2499 58.751C32.8037 58.751 29.9999 61.7298 29.9999 65.3913C29.9999 68.5986 32.1511 71.28 34.9998 71.8975V77.3438H7.5V63.9292C10.3487 63.3116 12.5 60.6302 12.5 57.423C12.5 53.7616 9.69624 50.7826 6.2499 50.7826C2.80371 50.7828 0 53.7616 0 57.423C0 60.6302 2.15127 63.3116 4.99995 63.9292V77.3438H1.24995C0.56001 77.3438 0 77.9388 0 78.6718C0 79.4049 0.56001 80 1.24995 80H73.7499C74.4398 80 74.9999 79.405 74.9999 78.672C74.9999 77.939 74.44 77.3438 73.7501 77.3438ZM9.78247 73.1594V68.0579C9.78247 67.3539 10.3669 66.7826 11.0868 66.7826C11.8068 66.7826 12.3912 67.3539 12.3912 68.0579V73.1594C12.3912 73.8633 11.8068 74.4347 11.0868 74.4347C10.3669 74.4347 9.78247 73.8633 9.78247 73.1594ZM17.6087 43.8261C17.6087 43.0581 17.0243 42.4348 16.3043 42.4348C15.5844 42.4348 15 43.0581 15 43.8261V46.6088C15 47.3767 15.5844 48 16.3043 48C17.0243 48 17.6087 47.3767 17.6087 46.6088V43.8261ZM16.3043 50.7826C17.0243 50.7826 17.6087 51.4059 17.6087 52.1739V54.9566C17.6087 55.7246 17.0243 56.3479 16.3043 56.3479C15.5844 56.3479 15 55.7246 15 54.9566V52.1739C15 51.4059 15.5844 50.7826 16.3043 50.7826ZM9.78247 43.8261V46.6088C9.78247 47.3767 10.3669 48 11.0868 48C11.8068 48 12.3912 47.3767 12.3912 46.6088V43.8261C12.3912 43.0581 11.8068 42.4348 11.0868 42.4348C10.3669 42.4348 9.78247 43.0581 9.78247 43.8261ZM26.0868 50.7826C26.8068 50.7826 27.3912 51.4059 27.3912 52.1739V54.9566C27.3912 55.7246 26.8068 56.3479 26.0868 56.3479C25.3669 56.3479 24.7825 55.7246 24.7825 54.9566V52.1739C24.7825 51.4059 25.3669 50.7826 26.0868 50.7826ZM32.6087 36.1739C32.6087 35.4059 32.0243 34.7826 31.3043 34.7826C30.5844 34.7826 30 35.4059 30 36.1739V38.9566C30 39.7245 30.5844 40.3479 31.3043 40.3479C32.0243 40.3479 32.6087 39.7245 32.6087 38.9566V36.1739ZM31.3043 26.4348C32.0243 26.4348 32.6087 27.0581 32.6087 27.826V30.6087C32.6087 31.3767 32.0243 32 31.3043 32C30.5844 32 30 31.3767 30 30.6087V27.826C30 27.0581 30.5844 26.4348 31.3043 26.4348ZM32.6087 43.8261C32.6087 43.0581 32.0243 42.4348 31.3043 42.4348C30.5844 42.4348 30 43.0581 30 43.8261V46.6088C30 47.3767 30.5844 48 31.3043 48C32.0243 48 32.6087 47.3767 32.6087 46.6088V43.8261ZM30 52.1739C30 51.4059 30.5844 50.7826 31.3043 50.7826C32.0245 50.7826 32.6088 51.4059 32.6087 52.1739V54.9566C32.6087 55.7246 32.0243 56.3479 31.3043 56.3479C30.5844 56.3479 30 55.7246 30 54.9566V52.1739ZM32.6087 20.1739C32.6087 19.406 32.0243 18.7826 31.3043 18.7826C30.5844 18.7826 30 19.406 30 20.1739V22.9566C30 23.7245 30.5844 24.3478 31.3043 24.3478C32.0243 24.3478 32.6087 23.7245 32.6087 22.9566V20.1739ZM26.0868 58.4348C26.8068 58.4348 27.3912 59.0581 27.3912 59.826V62.6087C27.3912 63.3766 26.8068 64 26.0868 64C25.3669 64 24.7825 63.3766 24.7825 62.6087V59.826C24.7825 59.0581 25.3669 58.4348 26.0868 58.4348ZM26.0868 42.4348C26.8068 42.4348 27.3912 43.0581 27.3912 43.8261V46.6088C27.3912 47.3767 26.8068 48 26.0868 48C25.3669 48 24.7825 47.3767 24.7825 46.6088V43.8261C24.7825 43.0581 25.3669 42.4348 26.0868 42.4348ZM26.0868 66.7826C25.3669 66.7826 24.7825 67.3539 24.7825 68.0579V73.1594C24.7825 73.8633 25.3669 74.4347 26.0868 74.4347C26.8068 74.4347 27.3912 73.8633 27.3912 73.1594V68.0579C27.3912 67.3539 26.8068 66.7826 26.0868 66.7826ZM31.3043 10.4348C32.0243 10.4348 32.6087 11.0582 32.6087 11.8261V14.6088C32.6087 15.3767 32.0243 16 31.3043 16C30.5844 16 30 15.3767 30 14.6088V11.8261C30 11.0582 30.5844 10.4348 31.3043 10.4348ZM27.3912 36.1739C27.3912 35.4059 26.8068 34.7826 26.0868 34.7826C25.3669 34.7826 24.7825 35.4059 24.7825 36.1739V38.9566C24.7825 39.7245 25.3669 40.3479 26.0868 40.3479C26.8068 40.3479 27.3912 39.7245 27.3912 38.9566V36.1739ZM6.25 53.4387C4.18252 53.4387 2.5 55.2263 2.5 57.4229C2.5 59.6195 4.18252 61.4072 6.25 61.4072C8.31748 61.4072 10 59.6195 10 57.4229C10 55.2263 8.31748 53.4387 6.25 53.4387ZM32.5 65.3913C32.5 63.1947 34.1825 61.4071 36.25 61.4071C38.3175 61.4071 40 63.1947 40 65.3913C40 67.5879 38.3175 69.3754 36.25 69.3754C34.1825 69.3754 32.5 67.5879 32.5 65.3913ZM70 61.4071C68.6212 61.4071 67.5 62.5985 67.5 64.0632C67.5 65.528 68.6212 66.7194 70 66.7194C71.3789 66.7194 72.5001 65.528 72.5001 64.0632C72.5001 62.5983 71.3789 61.4071 70 61.4071Z" fill="#D7DEE7"/>
</svg>
