<svg width="75" height="80" viewBox="0 0 75 80" fill="none" xmlns="http://www.w3.org/2000/svg">
<path fill-rule="evenodd" clip-rule="evenodd" d="M50.0196 31.6673L58.1301 42.6799C66.6135 43.0096 73.6516 49.7861 74.8242 58.7539C76.1595 68.9634 69.4822 78.3945 59.9102 79.8187C50.3383 81.2429 41.4963 74.1208 40.1611 63.9111C38.8258 53.7016 45.503 44.2705 55.0751 42.8463L48.1428 33.4344C41.8374 38.6423 33.0181 38.6045 26.7524 33.3424L17.1312 43.6046C21.4681 45.4432 24.4819 49.7078 24.9448 54.661C25.629 61.981 20.6201 68.5065 13.7575 69.2361V74.6351H23.9835C24.3609 73.4966 25.2005 72.6008 26.2681 72.1984C28.2198 71.4622 30.3615 72.5534 31.0517 74.6351C31.7419 76.7169 30.7188 79.0012 28.7671 79.7374C26.8154 80.4736 24.6735 79.3826 23.9835 77.3006H12.508C11.818 77.3006 11.2585 76.7039 11.2585 75.9679V69.2361C11.0514 69.2143 10.8447 69.187 10.6389 69.154C3.81827 68.064 -0.88239 61.2828 0.139554 54.0078C1.1615 46.7328 7.51916 41.719 14.3398 42.809L24.8881 31.5579C22.0621 28.4233 20.3565 24.3304 20.0688 19.9923H8.75946C8.2659 19.9926 7.81827 19.6829 7.61741 19.2019L2.9005 7.88154C1.84435 7.61916 0.947206 6.87998 0.442247 5.85643C-0.518626 3.90877 0.182662 1.49916 2.00851 0.474271C3.83451 -0.550616 6.09378 0.197225 7.05466 2.14488C8.01553 4.09253 7.31424 6.50214 5.48824 7.5272L9.57305 17.3268H20.0689C20.3535 12.9668 22.0671 8.85262 24.9094 5.70466C31.5969 -1.70178 42.6473 -1.92352 49.5911 5.20937L51.6091 3.05698C51.8434 2.80709 52.1611 2.66648 52.4925 2.66648H67.7165C68.0939 1.52798 68.9336 0.632202 70.0011 0.229711C71.9528 -0.506302 74.0944 0.584889 74.7845 2.66665C75.4747 4.74841 74.4519 7.03291 72.5 7.76892C70.5482 8.5051 68.4064 7.41408 67.7164 5.33215H53.0096L51.2666 7.19135C53.4082 10.1042 54.6834 13.6344 54.9276 17.3269H68.736C69.426 17.3269 69.9855 17.9237 69.9855 18.6597V21.4585C72.8939 22.0917 74.9829 24.8202 74.9835 27.9863C74.9842 31.6665 72.1876 34.6507 68.7372 34.6514C65.2869 34.652 62.4892 31.6692 62.4884 27.989C62.4917 24.8233 64.5793 22.0957 67.4865 21.4585V19.9924H54.9276C54.6387 24.381 52.8995 28.5181 50.0196 31.6673ZM68.7358 31.9873C70.8061 31.9873 72.4843 30.1972 72.4843 27.989C72.4843 25.7808 70.8061 23.9907 68.7358 23.9907C66.6656 23.9907 64.9873 25.7808 64.9873 27.989C64.9873 30.1972 66.6656 31.9873 68.7358 31.9873ZM71.2348 2.66675C71.9248 2.66675 72.4843 3.2635 72.4843 3.99952C72.4843 4.73554 71.9248 5.33229 71.2348 5.33229C70.5448 5.33229 69.9854 4.73554 69.9854 3.99952C69.9854 3.2635 70.5448 2.66675 71.2348 2.66675ZM2.51221 3.99952C2.51221 4.73554 3.07168 5.33229 3.76173 5.33229C4.45178 5.33229 5.01126 4.73554 5.01126 3.99952C5.01126 3.2635 4.45178 2.66675 3.76173 2.66675C3.07168 2.66675 2.51221 3.2635 2.51221 3.99952ZM27.502 74.6354C28.192 74.6354 28.7515 75.2321 28.7515 75.9681C28.7515 76.7041 28.192 77.3008 27.502 77.3008C26.8119 77.3008 26.2524 76.7041 26.2524 75.9681C26.2524 75.2321 26.8119 74.6354 27.502 74.6354ZM7.50977 62.6405V65.1967C10.5978 67.1202 14.4178 67.1202 17.5058 65.1967V62.6405C17.5058 59.6963 15.2681 57.3096 12.5078 57.3096C9.74748 57.3096 7.50977 59.6963 7.50977 62.6405ZM10.0088 51.9786C10.0088 50.5064 11.1276 49.3131 12.5078 49.3131C13.888 49.3131 15.0068 50.5064 15.0068 51.9786C15.0068 53.4508 13.888 54.6441 12.5078 54.6441C11.1276 54.6441 10.0088 53.4506 10.0088 51.9786ZM22.5045 55.9769C22.5098 53.3718 21.6207 50.8549 20.0054 48.9013C16.3539 44.4848 10.0371 44.062 5.89657 47.9568C1.75616 51.8516 1.35975 58.5892 5.0113 63.0057V62.6405C5.0127 59.7269 6.49946 57.0447 8.89228 55.6395C7.04878 53.5796 7.04878 50.3378 8.89228 48.2779C10.7983 46.1481 13.962 46.0696 15.9587 48.1024C17.9555 50.1354 18.0292 53.5099 16.1232 55.6397C18.5165 57.0446 20.0039 59.7269 20.0054 62.6407V63.0058C21.6151 61.0668 22.504 58.5667 22.5045 55.9769ZM46.2446 31.6194C41.0284 35.6586 33.9677 35.6586 28.7515 31.6194V28.3888C28.7515 25.9599 30.5976 23.9907 32.8748 23.9907H35.6488L33.8357 28.8259C33.65 29.3212 33.7592 29.8871 34.1131 30.264L36.6121 32.9295C37.1001 33.4497 37.891 33.4497 38.3789 32.9295L40.8779 30.264C41.2319 29.887 41.341 29.3212 41.1553 28.8259L39.3435 23.9907H42.1212C44.3984 23.9907 46.2446 25.9599 46.2446 28.3888V31.6194ZM37.5635 10.2406C37.5922 10.1485 37.6303 10.0602 37.6772 9.97687C38.0321 9.34581 38.7996 9.14106 39.3915 9.51957L43.5549 12.1851C42.9964 8.45336 41.0446 6.66479 37.4985 6.66479C33.6255 6.66479 31.655 8.78488 31.3198 13.2513C33.5177 13.0287 36.9312 12.2624 37.5635 10.2406ZM39.2212 12.5211L43.687 15.3799C43.1859 18.6424 39.4162 21.3253 37.4982 21.3253C34.7113 20.819 32.393 18.7577 31.4243 15.925C33.5635 15.737 37.4257 15.0453 39.2212 12.5211ZM37.4984 30.1027L38.5305 29.0005L37.4984 26.2457L36.4663 29.0005L37.4984 30.1027ZM42.9498 21.3865C44.899 19.7504 46.0984 17.3025 46.2447 14.6614C46.2447 5.84928 41.4879 3.99942 37.4982 3.99942C33.5085 3.99942 28.7516 5.84928 28.7516 14.6614C28.8969 17.304 30.0964 19.7536 32.0466 21.3905C28.7345 21.8258 26.2478 24.8292 26.2526 28.3888V29.1991C20.7753 22.5747 21.3697 12.4682 27.5805 6.62594C33.7914 0.783646 43.2664 1.4177 48.7438 8.04216C53.7418 14.087 53.7418 23.1541 48.7438 29.199V28.3886C48.7505 24.8277 46.2633 21.8218 42.9498 21.3865ZM48.7437 74.2674C53.9599 78.3067 61.0205 78.3067 66.2368 74.2674V71.0369C66.2368 68.6079 64.3906 66.6388 62.1134 66.6388H59.3357L61.1475 71.474C61.3332 71.9693 61.2241 72.535 60.8701 72.912L58.3711 75.5775C57.8832 76.0978 57.0922 76.0978 56.6043 75.5775L54.1053 72.912C53.7514 72.535 53.6422 71.9693 53.8279 71.474L55.6409 66.6388H52.867C50.5898 66.6388 48.7437 68.6079 48.7437 71.0369V74.2674ZM59.2134 55.1692V55.1678L63.6792 58.0266C63.1781 61.2905 59.4084 63.9734 57.4904 63.9734C54.7035 63.4671 52.3852 61.4058 51.4165 58.573C53.5557 58.3851 57.4179 57.6933 59.2134 55.1692ZM57.4899 49.3131C53.6164 49.3131 51.6459 51.4335 51.311 55.8995C53.5089 55.6769 56.9226 54.9106 57.5548 52.8888C57.5836 52.7967 57.6217 52.7084 57.6685 52.6251C58.0236 51.9939 58.7911 51.7892 59.3829 52.1678L63.5462 54.8333C62.9877 51.1016 61.036 49.3131 57.4899 49.3131ZM58.5222 71.6486L57.4901 72.7508L56.458 71.6486L57.4901 68.8938L58.5222 71.6486ZM68.736 71.0368V71.8511C71.1506 68.9427 72.4838 65.1925 72.4846 61.3076C72.4878 57.4181 71.1613 53.6608 68.7535 50.7397C63.289 44.1101 53.8202 43.4607 47.6047 49.2894C41.3891 55.118 40.7803 65.2175 46.2449 71.8471V71.0368C46.24 67.4772 48.7267 64.4739 52.0389 64.0386C50.0887 62.4016 48.8892 59.952 48.7439 57.3095C48.7439 48.4974 53.5008 46.6475 57.4905 46.6475C61.4801 46.6475 66.237 48.4974 66.237 57.3095C66.0907 59.9505 64.8913 62.3984 62.9421 64.0346C66.2556 64.47 68.7428 67.4757 68.736 71.0368Z" fill="#D7DEE7"/>
</svg>
