<svg width="75" height="75" viewBox="0 0 75 75" fill="none" xmlns="http://www.w3.org/2000/svg">
<path d="M74.5647 31.5442C74.218 31.1976 73.7201 31.0475 73.24 31.144L60.6164 33.6846C60.0871 33.7912 59.6593 34.1803 59.5032 34.6969C59.347 35.2136 59.4878 35.7745 59.8695 36.1563L61.5774 37.8642L54.8745 44.5671L49.6855 39.3782C49.4107 39.1035 49.0382 38.9491 48.6498 38.9491C48.2613 38.9491 47.8889 39.1035 47.6141 39.3782L41.2469 45.7455L43.6353 37.1636C44.2159 35.0774 43.7976 32.892 42.4877 31.1676C41.6853 30.1115 40.626 29.3329 39.4284 28.8867L41.3377 23.4326C41.8646 23.4789 42.3901 23.5025 42.9096 23.5025C47.1392 23.5025 51.263 22.0117 54.5216 19.305L54.8707 19.0152C56.5886 17.5878 56.8822 15.1072 55.5393 13.3683C54.8583 12.4864 53.8743 11.9333 52.7685 11.8112C51.6622 11.6889 50.5812 12.0134 49.7252 12.7246L49.3287 13.054C48.7444 13.5393 48.1055 13.9583 47.4297 14.2992C45.171 15.4384 42.3506 14.931 40.4764 13.0763C43.2026 12.2318 45.1885 9.68701 45.1885 6.68694C45.1886 2.99977 42.1887 0 38.5014 0C34.8139 0 31.8142 2.99977 31.8142 6.68709C31.8142 8.15446 32.2903 9.51197 33.0946 10.6158C31.5734 10.9433 30.2043 11.7277 29.1567 12.8366C29.0956 12.8902 29.037 12.9482 28.984 13.0136C26.4018 16.1853 22.9594 18.4603 19.0291 19.5924C17.965 19.8991 17.1227 20.6057 16.6173 21.5015L13.6152 18.4994C12.3016 17.186 10.1645 17.1861 8.85082 18.4994L4.92197 22.4284L0.993115 26.3573C0.356689 26.9935 0.00632477 27.8394 0.00632477 28.7395C0.00632477 29.6394 0.356835 30.4853 0.992968 31.1217L11.8181 41.9469C12.4545 42.5831 13.3004 42.9335 14.2003 42.9335C15.1004 42.9335 15.9463 42.583 16.5826 41.9469L20.6506 37.8788L18.7216 42.9369C18.4334 43.6927 18.8125 44.5391 19.5683 44.8274C19.7401 44.8929 19.9164 44.9239 20.09 44.9239C20.68 44.9239 21.2362 44.5648 21.4589 43.9808L26.263 31.3839H35.4337H37.0189C38.2609 31.3839 39.4038 31.9511 40.1551 32.9399C40.9063 33.9288 41.1463 35.182 40.8132 36.3782L37.4849 48.3372C37.3352 48.8753 36.8404 49.2512 36.2817 49.2512C35.7805 49.2512 35.4714 48.9767 35.3319 48.8131C35.1923 48.6495 34.9696 48.301 35.0483 47.8062L36.8193 36.6725C36.8867 36.249 36.7651 35.8175 36.4868 35.4915C36.2085 35.1654 35.8013 34.9777 35.3727 34.9777H31.9001C31.3478 34.9777 30.8423 35.2883 30.593 35.7812C30.5075 35.9502 22.0089 52.7538 19.1451 58.4317C18.8585 59.0003 18.2352 59.3247 17.5961 59.2373L17.5267 59.2279C17.0907 59.169 16.7119 58.9183 16.4871 58.5399C16.2622 58.1616 16.2234 57.7088 16.3803 57.2978L17.2828 54.9313C17.5711 54.1755 17.192 53.3291 16.4362 53.0407C15.6806 52.7525 14.8341 53.1317 14.5457 53.8873L13.6431 56.2539C13.1658 57.5057 13.2844 58.8841 13.9686 60.036C14.6528 61.1877 15.8065 61.9514 17.133 62.131L17.2024 62.1402C17.4032 62.1676 17.6033 62.1807 17.8021 62.1807C19.4605 62.1807 21.0028 61.2541 21.7608 59.751C24.2623 54.7914 31.0654 41.3384 32.8008 37.9071H33.6566L32.1553 47.346C31.963 48.5554 32.3086 49.7835 33.1039 50.7149C33.6153 51.3141 34.2777 51.7478 35.0109 51.9817L18.6943 68.2984C18.4196 68.5732 18.2652 68.9457 18.2652 69.3341C18.2652 69.7226 18.4196 70.0952 18.6943 70.3698L22.8955 74.571C23.1816 74.8569 23.5564 75 23.9313 75C24.3061 75 24.6809 74.8569 24.967 74.571L33.0437 66.4943C33.6156 65.9223 33.6156 64.9949 33.0437 64.4227C32.4715 63.8509 31.5444 63.8509 30.9721 64.4227L23.9313 71.4637L21.8015 69.334L48.6501 42.4851L53.839 47.6741C54.1138 47.9487 54.4863 48.1031 54.8748 48.1031C55.2632 48.1031 55.6357 47.9487 55.9105 47.6741L64.6847 38.8998C65.2566 38.3278 65.2566 37.4003 64.6847 36.8282L63.8735 36.017L71.6584 34.4504L70.0917 42.2353L68.8861 41.0296C68.314 40.4578 67.3868 40.4578 66.8145 41.0296L54.8746 52.9695L49.6856 47.7806C49.1135 47.2088 48.1863 47.2088 47.6141 47.7806L39.2576 56.137C38.6857 56.709 38.6857 57.6365 39.2576 58.2086C39.8298 58.7804 40.7569 58.7804 41.3292 58.2086L48.6498 50.888L53.8387 56.077C54.4109 56.6488 55.338 56.6488 55.9103 56.077L67.8502 44.1371L69.9527 46.2395C70.3344 46.6213 70.8956 46.7623 71.412 46.6059C71.9288 46.4499 72.318 46.022 72.4244 45.4927L74.965 32.8689C75.0617 32.3883 74.9114 31.891 74.5647 31.5442ZM38.5014 2.92946C40.5734 2.92946 42.259 4.61522 42.259 6.68709C42.259 8.7591 40.5732 10.4449 38.5014 10.4449C36.4294 10.4449 34.7436 8.7591 34.7436 6.68709C34.7436 4.61522 36.4294 2.92946 38.5014 2.92946ZM24.0076 28.8918L22.225 27.1093C23.0716 26.833 23.9031 26.5171 24.7172 26.1636L24.0076 28.8918ZM19.0642 23.811C18.8911 23.2101 19.2393 22.5806 19.8401 22.4075C22.248 21.7138 24.4939 20.6428 26.5172 19.2441L25.6901 22.424C24.0435 23.3339 22.2903 24.0616 20.4673 24.5867C20.4335 24.5964 20.398 24.6049 20.363 24.6116C20.0928 24.663 19.8224 24.6093 19.5954 24.4798L19.1663 24.0508C19.124 23.9759 19.0889 23.8962 19.0642 23.811ZM10.9221 20.5708C11.0078 20.4852 11.1204 20.4424 11.2329 20.4424C11.3454 20.4424 11.458 20.4852 11.5436 20.5708L16.8828 25.9101C17.1305 26.2483 17.4258 26.5431 17.7584 26.7857L22.3688 31.3961C22.5402 31.5673 22.5402 31.8462 22.3688 32.0174L19.4757 34.9106L16.2581 31.693L16.871 31.0802C17.4429 30.5082 17.4429 29.5807 16.871 29.0086L13.5738 25.7115C13.0017 25.1396 12.0745 25.1396 11.5023 25.7115L10.8894 26.3243L8.02896 23.4638L10.9221 20.5708ZM12.927 30.8812C12.7868 31.0214 12.6232 31.0425 12.5381 31.0425C12.4532 31.0425 12.2896 31.0214 12.1494 30.8814V30.8812L11.7013 30.4333C11.5613 30.2932 11.5402 30.1295 11.5402 30.0446C11.5402 29.9595 11.5613 29.7959 11.7015 29.6557L12.5381 28.819L13.7637 30.0446L12.927 30.8812ZM14.511 39.8754C14.4045 39.9818 14.2834 40.004 14.2003 40.004C14.1174 40.004 13.996 39.9818 13.8896 39.8753L3.06454 29.0502C2.95805 28.9437 2.93579 28.8224 2.93579 28.7395C2.93579 28.6565 2.95805 28.5352 3.06454 28.4288L5.95753 25.5357L8.95496 28.533C8.73012 28.9985 8.61075 29.5123 8.61075 30.0446C8.61075 30.9741 8.97283 31.8478 9.62991 32.5049L10.0778 32.9527V32.9528C10.7349 33.6099 11.6088 33.972 12.5381 33.972C13.0704 33.972 13.5842 33.8527 14.0497 33.6278L17.4043 36.9823L14.511 39.8754ZM35.4335 28.4545H27.1484L30.1574 16.887C30.6955 14.8188 32.5638 13.3745 34.7008 13.3745C36.021 13.3745 37.2422 13.9068 38.1393 14.8733C40.8912 17.8385 45.2545 18.678 48.7492 16.9149C49.6219 16.4747 50.4469 15.9341 51.2009 15.3075L51.5974 14.9781C51.8365 14.7794 52.138 14.6883 52.4471 14.7232C52.7554 14.7572 53.0302 14.9119 53.2209 15.159C53.589 15.6354 53.4893 16.3546 52.9989 16.762L52.65 17.0518C49.9162 19.3227 46.4571 20.5733 42.9098 20.5733C42.1395 20.5733 41.3522 20.5117 40.5696 20.3899C39.8711 20.2804 39.1954 20.6864 38.9619 21.3533L36.476 28.4545H35.4335Z" fill="#D7DEE7"/>
<path d="M36.1782 59.8784C35.793 59.8784 35.4151 60.035 35.1427 60.3076C34.8702 60.5799 34.7135 60.9578 34.7135 61.3432C34.7135 61.7298 34.8701 62.1063 35.1427 62.3786C35.4151 62.6525 35.793 62.8079 36.1782 62.8079C36.5635 62.8079 36.9414 62.6525 37.2137 62.3786C37.4861 62.1063 37.643 61.7297 37.643 61.3432C37.643 60.9578 37.4862 60.5799 37.2137 60.3076C36.9414 60.035 36.5635 59.8784 36.1782 59.8784Z" fill="#D7DEE7"/>
<path d="M17.9995 50.4075C18.3847 50.4075 18.7626 50.2508 19.035 49.9782C19.3073 49.7059 19.4642 49.328 19.4642 48.9428C19.4642 48.5575 19.3075 48.1796 19.035 47.9072C18.7611 47.6348 18.3847 47.478 17.9995 47.478C17.6143 47.478 17.2364 47.6346 16.9624 47.9072C16.6902 48.1796 16.5347 48.5575 16.5347 48.9428C16.5347 49.328 16.6902 49.7059 16.9624 49.9782C17.2364 50.2506 17.6128 50.4075 17.9995 50.4075Z" fill="#D7DEE7"/>
</svg>
