<svg width="77" height="77" viewBox="0 0 77 77" fill="none" xmlns="http://www.w3.org/2000/svg">
<path fill-rule="evenodd" clip-rule="evenodd" d="M70.7058 65.2942C70.7031 65.1682 70.678 65.0438 70.6317 64.9267C70.6296 64.9216 70.6271 64.9169 70.6244 64.9123L70.6197 64.9047L70.6162 64.8993L70.6113 64.8916C70.6083 64.8868 70.6055 64.8819 70.603 64.8767C70.5718 64.8052 70.533 64.7374 70.487 64.6745L63.1827 55.2832V24.4506C63.1808 22.6688 61.7368 21.2248 59.955 21.2229H44.8925V16.9194C44.8925 11.6382 39.389 6.64532 39.1547 6.43514C38.7466 6.06849 38.1277 6.06849 37.7196 6.43514C37.4853 6.64532 31.9818 11.6382 31.9818 16.9194V21.2229H16.9191C15.1373 21.2248 13.6933 22.6688 13.6914 24.4506V55.283L6.38707 64.6744C6.34093 64.7375 6.30197 64.8055 6.27083 64.8772C6.26705 64.8851 6.26239 64.8923 6.25775 64.8994L6.25774 64.8995C6.25215 64.9081 6.24658 64.9166 6.24258 64.9264C6.19631 65.0437 6.17122 65.1681 6.16832 65.2942C6.16808 65.3011 6.16615 65.3074 6.16423 65.3138C6.16218 65.3206 6.16013 65.3274 6.16013 65.3348V67.4866C6.16202 69.2684 7.60603 70.7124 9.38782 70.7143H67.4863C69.2681 70.7124 70.7122 69.2684 70.714 67.4866V65.3348C70.714 65.3298 70.7132 65.3251 70.7119 65.3206L70.7099 65.3135C70.708 65.3073 70.7061 65.301 70.7058 65.2942ZM44.8925 23.3747H59.9551C60.5491 23.3754 61.0305 23.8566 61.031 24.4506V42.7684C60.1051 42.0568 58.971 41.6691 57.8033 41.6649C57.8133 39.7617 56.9788 37.9522 55.5246 36.7244C54.0704 35.4966 52.1465 34.9772 50.272 35.3062V34.1338C50.272 33.8822 50.1839 33.6386 50.023 33.445L44.8925 27.2885V23.3747ZM48.1202 34.523L44.8925 30.6502V40.1438L48.1202 43.3715V36.7285V34.523ZM38.4371 8.74547C39.6756 10.0326 42.1212 12.8951 42.638 15.8434H34.2362C34.753 12.8951 37.1986 10.0328 38.4371 8.74547ZM42.7408 17.9952H34.1335V34.1337H42.7408V17.9952ZM34.1335 36.2855H42.7408V39.5132H34.1335V36.2855ZM34.7986 41.6649L35.8745 43.8168H40.9998L42.0757 41.6649H34.7986ZM40.03 45.9686C39.655 47.1578 39.1191 48.2902 38.4371 49.334C37.7547 48.2903 37.2186 47.1579 36.844 45.9686H40.03ZM16.9191 23.3747C16.3251 23.3752 15.8439 23.8566 15.8432 24.4506H15.8431V42.7684C16.7689 42.0567 17.903 41.669 19.0708 41.6649C19.0607 39.7619 19.8952 37.9522 21.3495 36.7244C22.8037 35.4966 24.7276 34.9772 26.6022 35.3062V34.1338C26.6022 33.8822 26.6903 33.6384 26.8512 33.445L31.9817 27.2885V23.3747H16.9191ZM31.9817 30.6502V40.1436L28.754 43.3713V34.523L31.9817 30.6502ZM19.0709 43.8168C17.2891 43.8187 15.8451 45.2627 15.8432 47.0445H15.8428V54.5758H61.0306V47.0446C61.0287 45.2628 59.5847 43.8188 57.8029 43.8169C57.4939 43.8167 57.1865 43.8625 56.8909 43.9529C55.6394 44.3205 54.7318 45.4044 54.5899 46.701C54.5611 46.986 54.4187 47.2473 54.1949 47.426C53.9711 47.6047 53.6848 47.6857 53.4005 47.6508C52.8102 47.5847 52.385 47.0528 52.4507 46.4625C52.6614 44.5586 53.8698 42.9109 55.6223 42.1377C55.6408 41.9809 55.6505 41.823 55.6512 41.6651C55.6486 39.2893 53.7234 37.364 51.3476 37.3615C50.9841 37.3666 50.6228 37.417 50.2718 37.5118V45.9687C50.2718 46.4039 50.0096 46.7961 49.6076 46.9626C49.2055 47.1292 48.7428 47.0372 48.4351 46.7294L44.1111 42.4055L42.6269 45.374C42.532 45.5612 42.3841 45.7166 42.2016 45.8206C42.1971 47.5469 40.0026 50.9462 39.3299 51.948C39.13 52.2456 38.7952 52.424 38.4368 52.424C38.0785 52.424 37.7436 52.2455 37.5438 51.948C36.871 50.9463 34.6764 47.5469 34.672 45.8206C34.4896 45.7166 34.3417 45.5612 34.2468 45.374L32.7621 42.4053L28.4385 46.7293C28.1309 47.0369 27.6682 47.1291 27.2661 46.9625C26.8642 46.7961 26.602 46.4037 26.602 45.9686V37.5117C26.2511 37.4169 25.8897 37.3663 25.5262 37.3614C23.1504 37.3639 21.2251 39.2892 21.2226 41.6649C21.2234 41.8228 21.233 41.9805 21.2515 42.1372C23.0043 42.9102 24.2128 44.5583 24.4231 46.4624C24.4886 47.0529 24.0632 47.5849 23.4727 47.6507C22.8821 47.7165 22.3499 47.2913 22.2839 46.7009C22.1433 45.4072 21.2391 44.3246 19.9913 43.9555C19.6931 43.8636 19.383 43.8168 19.0709 43.8168ZM15.2937 56.7276H61.5805L67.4381 64.2588H9.43611L15.2937 56.7276ZM9.38781 68.5624H67.4863C68.0803 68.5619 68.5616 68.0805 68.5623 67.4865V66.4107H8.31195V67.4865C8.31246 68.0805 8.79384 68.5617 9.38781 68.5624Z" fill="white"/>
<path d="M55.6514 59.9553H21.2228C20.6285 59.9553 20.1469 60.437 20.1469 61.0312C20.1469 61.6254 20.6285 62.107 21.2228 62.107H55.6516C56.2458 62.107 56.7274 61.6254 56.7274 61.0312C56.7274 60.437 56.2457 59.9553 55.6514 59.9553Z" fill="white"/>
<path d="M16.9191 59.9553H15.8432C15.249 59.9553 14.7674 60.437 14.7674 61.0312C14.7674 61.6254 15.249 62.107 15.8432 62.107H16.9191C17.5133 62.107 17.9949 61.6254 17.9949 61.0312C17.9949 60.437 17.5133 59.9553 16.9191 59.9553Z" fill="white"/>
<path d="M61.031 59.9553H59.9551C59.3609 59.9553 58.8793 60.437 58.8793 61.0312C58.8793 61.6254 59.3609 62.107 59.9551 62.107H61.031C61.6252 62.107 62.1068 61.6254 62.1068 61.0312C62.1068 60.437 61.6252 59.9553 61.031 59.9553Z" fill="white"/>
<path d="M39.5129 20.147H37.3611C36.7669 20.147 36.2852 20.6286 36.2852 21.2228C36.2852 21.8171 36.7669 22.2987 37.3611 22.2987H39.5129C40.1072 22.2987 40.5888 21.8169 40.5888 21.2228C40.5888 20.6287 40.1072 20.147 39.5129 20.147Z" fill="white"/>
<path d="M39.5129 24.4507H37.3611C36.7669 24.4507 36.2852 24.9324 36.2852 25.5265C36.2852 26.1208 36.7669 26.6024 37.3611 26.6024H39.5129C40.1072 26.6024 40.5888 26.1206 40.5888 25.5265C40.5889 24.9323 40.1072 24.4507 39.5129 24.4507Z" fill="white"/>
</svg>
