<svg width="60" height="60" viewBox="0 0 60 60" fill="none" xmlns="http://www.w3.org/2000/svg">
<g clip-path="url(#clip0)">
<path d="M57.0995 17.1236C56.8221 16.5393 56.1231 16.2906 55.5387 16.5681C54.9544 16.8457 54.7056 17.5445 54.9833 18.1291C58.5982 25.7389 58.5154 34.783 54.7616 42.3222C54.4733 42.9014 54.709 43.6046 55.2883 43.8931C55.4561 43.9767 55.6341 44.0163 55.8095 44.0163C56.2399 44.0163 56.6543 43.7782 56.8592 43.3667C58.8689 39.3298 59.9528 34.8001 59.9932 30.2671C60.0335 25.7383 59.0328 21.1934 57.0995 17.1236Z" fill="white"/>
<path d="M4.76211 16.0104C4.18426 15.72 3.48008 15.9531 3.18934 16.5313C1.1559 20.5786 0.055503 25.1243 0.00722169 29.6773C-0.0410597 34.2249 0.959958 38.7888 2.90211 42.8756C3.10262 43.2977 3.52285 43.5445 3.96102 43.5445C4.12953 43.5444 4.30063 43.5078 4.46305 43.4306C5.04735 43.153 5.29602 42.4541 5.01829 41.8696C1.38465 34.2236 1.48367 25.1446 5.28301 17.5831C5.5734 17.0051 5.34032 16.3009 4.76211 16.0104Z" fill="white"/>
<path d="M19.002 3.31747C18.7298 2.73059 18.0336 2.47547 17.4463 2.7477L17.4178 2.76094C16.8309 3.03317 16.5756 3.72973 16.8481 4.31673C17.0463 4.74423 17.4694 4.9956 17.9116 4.9956C18.0766 4.9956 18.2443 4.96056 18.4038 4.8865L18.4324 4.87325C19.0191 4.60091 19.2744 3.90434 19.002 3.31747Z" fill="white"/>
<path d="M42.8469 2.88491C36.3137 -0.210491 28.8703 -0.838852 21.888 1.11549C21.265 1.28998 20.9013 1.93639 21.0755 2.55948C21.2498 3.18256 21.8968 3.5462 22.5195 3.37182C28.958 1.56971 35.8209 2.14873 41.8438 5.00237C42.0058 5.07913 42.1765 5.11546 42.3445 5.11546C42.7831 5.11546 43.2037 4.86796 43.404 4.44526C43.6809 3.86049 43.4315 3.16194 42.8469 2.88491Z" fill="white"/>
<path d="M43.1606 55.6856C42.8934 55.0964 42.1989 54.8351 41.6098 55.1025L41.5952 55.1091C41.006 55.3763 40.7448 56.0707 41.0121 56.6599C41.2081 57.0922 41.634 57.3479 42.0796 57.3479C42.2415 57.3479 42.4059 57.3141 42.5628 57.243C42.5634 57.2428 42.5771 57.2364 42.5777 57.2362C43.1667 56.9689 43.4277 56.2747 43.1606 55.6856Z" fill="white"/>
<path d="M39.3921 57.2796C39.207 56.6597 38.5549 56.3072 37.9344 56.4921C31.2904 58.4752 24.2023 57.9125 17.9766 54.9069C17.3941 54.626 16.6936 54.87 16.4121 55.4526C16.131 56.0353 16.3752 56.7356 16.9578 57.017C21.0604 58.9973 25.5072 60.0001 29.9818 60.0001C32.873 60.0001 35.776 59.5813 38.6044 58.7372C39.2246 58.552 39.5772 57.8995 39.3921 57.2796Z" fill="white"/>
<path d="M30 11.0195C19.5353 11.0195 11.0218 19.5331 11.0218 29.9977C11.0218 40.4624 19.5353 48.9759 30 48.9759C40.4646 48.9759 48.9782 40.4624 48.9782 29.9977C48.9782 19.5331 40.4646 11.0195 30 11.0195ZM21.1373 15.9263C20.476 16.9751 19.9953 18.1488 19.7402 19.4034C19.0652 19.255 18.4134 19.0212 17.797 18.7052C18.7828 17.6406 19.9055 16.7048 21.1373 15.9263ZM16.308 20.5617C17.3127 21.1368 18.398 21.5382 19.5304 21.7528V28.8262H13.4065C13.6202 25.7721 14.6618 22.9429 16.308 20.5617ZM16.2529 39.3545C14.6384 36.9899 13.6177 34.1894 13.4066 31.1693H19.5304V37.8667C18.3631 38.156 17.2563 38.6565 16.2529 39.3545ZM17.7093 41.1962C18.3224 40.7866 18.9842 40.4717 19.6783 40.2568C19.9123 41.6378 20.4176 42.9275 21.1374 44.0692C19.8691 43.2675 18.7158 42.3 17.7093 41.1962ZM28.8284 46.5429C25.3646 46.0404 22.6032 43.3455 21.9989 39.9153H28.8284V46.5429ZM28.8284 37.5723H21.9433C21.9199 37.5723 21.8967 37.5735 21.8732 37.5736V31.1693H28.8284V37.5723ZM28.8284 28.8262H21.8732V21.9372H28.8284V28.8262ZM28.8284 19.5943H22.0996C22.8683 16.3976 25.5297 13.9311 28.8284 13.4525V19.5943ZM43.6921 20.5618C45.3381 22.9429 46.3798 25.7721 46.5934 28.8262H40.4696V21.7529C41.602 21.5383 42.6874 21.1371 43.6921 20.5618ZM42.2032 18.7053C41.5869 19.0213 40.935 19.2551 40.2597 19.4035C40.0046 18.1489 39.5238 16.9752 38.8626 15.9263C40.0945 16.7049 41.2173 17.6408 42.2032 18.7053ZM31.1714 13.4526C34.47 13.9311 37.1315 16.3977 37.9002 19.5944H31.1714V13.4526ZM31.1714 46.5429V39.9153H38.001C37.3966 43.3455 34.6353 46.0404 31.1714 46.5429ZM38.1266 37.5737C38.1031 37.5735 38.0798 37.5723 38.0563 37.5723H31.1714V31.1693H38.1266V37.5737ZM38.1266 28.8262H31.1714V21.9372H38.1266V28.8262ZM38.8626 44.0692C39.5824 42.9274 40.0877 41.6379 40.3217 40.2569C41.0156 40.472 41.6774 40.7869 42.2904 41.1964C41.2839 42.3001 40.1307 43.2676 38.8626 44.0692ZM43.7469 39.3546C42.7435 38.6567 41.6367 38.1561 40.4695 37.8668V31.1693H46.5933C46.3822 34.1894 45.3616 36.99 43.7469 39.3546Z" fill="white"/>
<path d="M9.61906 3.29053C6.13097 3.29053 3.29303 6.12835 3.29303 9.61656C3.29303 13.1048 6.13085 15.9426 9.61906 15.9426C13.1072 15.9426 15.9451 13.1048 15.9451 9.61656C15.9451 6.12835 13.1072 3.29053 9.61906 3.29053ZM9.61906 13.5997C7.42273 13.5997 5.63596 11.8129 5.63596 9.61656C5.63596 7.42022 7.42273 5.63346 9.61906 5.63346C11.8154 5.63346 13.6022 7.42022 13.6022 9.61656C13.6022 11.8129 11.8154 13.5997 9.61906 13.5997Z" fill="white"/>
<path d="M9.61906 44.0525C6.13097 44.0525 3.29303 46.8903 3.29303 50.3785C3.29303 53.8667 6.13097 56.7045 9.61906 56.7045C13.1072 56.7045 15.9451 53.8667 15.9451 50.3785C15.9451 46.8903 13.1072 44.0525 9.61906 44.0525ZM9.61906 54.3616C7.42273 54.3616 5.63596 52.5749 5.63596 50.3785C5.63596 48.1822 7.42273 46.3954 9.61906 46.3954C11.8154 46.3954 13.6022 48.1822 13.6022 50.3785C13.6022 52.5749 11.8154 54.3616 9.61906 54.3616Z" fill="white"/>
<path d="M50.3808 44.0525C46.8927 44.0525 44.0547 46.8903 44.0547 50.3785C44.0547 53.8667 46.8927 56.7045 50.3808 56.7045C53.8689 56.7045 56.7068 53.8667 56.7068 50.3785C56.7068 46.8903 53.8689 44.0525 50.3808 44.0525ZM50.3808 54.3616C48.1844 54.3616 46.3977 52.5749 46.3977 50.3785C46.3977 48.1822 48.1844 46.3954 50.3808 46.3954C52.5771 46.3954 54.3639 48.1822 54.3639 50.3785C54.3639 52.5749 52.5771 54.3616 50.3808 54.3616Z" fill="white"/>
<path d="M50.3808 3.29053C46.8927 3.29053 44.0547 6.12835 44.0547 9.61656C44.0547 13.1048 46.8927 15.9426 50.3808 15.9426C53.8689 15.9426 56.7068 13.1048 56.7068 9.61656C56.7068 6.12835 53.8689 3.29053 50.3808 3.29053ZM50.3808 13.5997C48.1844 13.5997 46.3977 11.8129 46.3977 9.61656C46.3977 7.42022 48.1844 5.63346 50.3808 5.63346C52.5771 5.63346 54.3639 7.42022 54.3639 9.61656C54.3639 11.8129 52.5771 13.5997 50.3808 13.5997Z" fill="white"/>
</g>
<defs>
<clipPath id="clip0">
<rect width="60" height="60" fill="white"/>
</clipPath>
</defs>
</svg>
